<svg width="956" height="956" viewBox="0 0 956 956" fill="none" xmlns="http://www.w3.org/2000/svg">
<path d="M142.815 478.024H0L96.343 463.262C100.034 366.288 139.901 278.54 202.786 213.178L223.473 241.343L231.097 251.735C180.983 306.316 148.788 377.505 143.64 456.027L288.349 433.835L169.134 350.117L323.069 377.068L354.488 419.849C345.844 438.205 341.522 458.115 341.522 478.024H142.815ZM574.562 381.439C587.139 394.016 596.753 408.486 603.406 423.88L667.7 433.738L786.914 350.02L632.979 376.971L725 251.589C775.114 306.219 807.358 377.457 812.457 455.93L859.657 463.165C855.967 366.191 816.147 278.443 753.214 213.081L781.767 174.136L574.513 381.39L574.562 381.439ZM224.93 224.881L241.149 241.149L381.439 381.439C394.064 368.862 408.486 359.247 423.88 352.642L433.738 288.349L350.02 169.134L376.971 323.069L251.638 231.097C306.268 180.983 377.408 148.691 455.93 143.543L463.165 96.343C366.191 100.034 278.491 139.901 213.13 202.835L174.185 174.282L224.881 224.93L224.93 224.881ZM578.98 323.069L605.931 169.134L522.214 288.349L500.022 143.64C578.495 148.739 649.732 180.934 704.362 231.048L714.706 223.473L742.87 202.786C677.509 139.853 589.761 100.034 492.787 96.343L478.024 0V341.474C497.934 341.474 517.892 345.796 536.248 354.488L579.029 323.069H578.98ZM381.487 574.562C368.861 561.984 359.295 547.514 352.642 532.12L288.349 522.262L169.134 605.98L323.069 579.029L231.048 704.411C180.934 649.781 148.691 578.592 143.543 500.071L96.343 492.787C100.034 589.809 139.901 677.509 202.786 742.919L174.233 781.815L381.487 574.562ZM614.526 478.024C614.526 497.934 610.205 517.843 601.512 536.248L632.931 579.029L786.866 605.98L667.651 522.262L812.36 500.071C807.212 578.592 775.017 649.781 724.952 704.411L732.527 714.803L753.214 742.967C816.147 677.606 855.967 589.858 859.657 492.835L956 478.073H614.526V478.024ZM574.562 574.562C561.984 587.139 547.514 596.753 532.12 603.406L522.262 667.651L605.98 786.866L579.029 632.979L704.411 725C649.829 775.114 578.592 807.358 500.071 812.457L492.835 859.657C589.809 855.967 677.557 816.147 742.919 753.214L781.815 781.767L574.562 574.513V574.562ZM377.02 632.979L350.069 786.866L433.786 667.651L456.027 812.36C377.505 807.212 306.316 775.017 251.686 724.952L241.343 732.527L213.178 753.214C278.54 816.147 366.239 855.967 463.262 859.657L478.024 956V614.526C458.115 614.526 438.205 610.156 419.849 601.512L377.068 632.931L377.02 632.979Z" fill="white" fill-opacity="0.2"/>
</svg>
