<svg width="25" height="25" viewBox="0 0 25 25" fill="none" xmlns="http://www.w3.org/2000/svg">
<g clip-path="url(#clip0_6222_3881)">
<path d="M24.2643 13.0966C24.2643 12.2808 24.1982 11.4607 24.0571 10.6582H12.7383V15.2792H19.22C18.951 16.7695 18.0868 18.0879 16.8213 18.9257V21.924H20.6883C22.9591 19.834 24.2643 16.7475 24.2643 13.0966Z" fill="white"/>
<path d="M12.7391 24.8216C15.9756 24.8216 18.705 23.759 20.6936 21.9247L16.8266 18.9263C15.7507 19.6583 14.3618 20.0728 12.7435 20.0728C9.61291 20.0728 6.95849 17.9607 6.00607 15.1211H2.01562V18.212C4.05274 22.2642 8.20192 24.8216 12.7391 24.8216Z" fill="white"/>
<path d="M6.00082 15.121C5.49816 13.6307 5.49816 12.0168 6.00082 10.5265V7.43555H2.01478C0.312781 10.8263 0.312781 14.8212 2.01478 18.212L6.00082 15.121Z" fill="white"/>
<path d="M12.7391 5.56997C14.4499 5.54352 16.1034 6.18728 17.3425 7.36898L20.7685 3.94293C18.5991 1.90582 15.7198 0.785847 12.7391 0.821121C8.20192 0.821121 4.05274 3.37853 2.01562 7.43512L6.00166 10.5261C6.94967 7.68204 9.6085 5.56997 12.7391 5.56997Z" fill="white"/>
</g>
<defs>
<clipPath id="clip0_6222_3881">
<rect width="24" height="24" fill="white" transform="translate(0.5 0.820312)"/>
</clipPath>
</defs>
</svg>
