<?xml version="1.0" encoding="UTF-8"?>
<svg version="1.1" xmlns="http://www.w3.org/2000/svg" width="1200" height="1200">
<path d="M0 0 C3.05366739 1.32906577 4.78225934 2.62453975 6.77734375 5.28125 C7.53785034 6.28357666 7.53785034 6.28357666 8.3137207 7.30615234 C8.84956787 8.03012207 9.38541504 8.7540918 9.9375 9.5 C10.50235107 10.25104004 11.06720215 11.00208008 11.64916992 11.77587891 C17.38658051 19.43792923 22.9810868 27.20472407 28.5546875 34.98632812 C31.68015123 39.34085935 34.84226319 43.66884437 38 48 C36.31793531 52.08074864 33.44760622 55.11164544 30.5625 58.375 C1.45956253 91.86810836 -23.61545327 130.64621892 -40 172 C-38.90860718 172.14332764 -37.81721436 172.28665527 -36.69274902 172.43432617 C-19.38076882 174.77692513 -2.19372365 177.84062753 15.00981712 180.8594017 C18.50377024 181.47207404 21.99809333 182.08262163 25.49241686 182.69317722 C33.73861754 184.13402565 41.98424828 185.57810122 50.22949219 187.02441406 C58.69554905 188.5094139 67.16245882 189.98947356 75.62981558 191.46704197 C82.94888289 192.74437684 90.26746286 194.0244764 97.58565378 195.30682278 C101.93552387 196.06903038 106.28555178 196.83030224 110.6360321 197.58901978 C114.72109489 198.3015979 118.8055307 199.01767038 122.88953018 199.73631668 C124.37710212 199.99751167 125.86487894 200.25754331 127.3528862 200.5162468 C134.33594343 201.73101607 141.30952127 202.99976037 148.24938965 204.44262695 C149.77814854 204.75572563 149.77814854 204.75572563 151.33779144 205.07514954 C156.15285925 206.74790266 158.32662985 210.32160694 160.9375 214.5 C162.1083623 216.22464629 163.28026786 217.9485847 164.453125 219.671875 C165.32807617 220.99735352 165.32807617 220.99735352 166.22070312 222.34960938 C169.06697467 226.58933549 172.13466075 230.65803897 175.1875 234.75 C176.33625139 236.32529199 177.4846936 237.90080948 178.6328125 239.4765625 C180.82216898 242.45789489 183.08034504 245.35421264 185.4296875 248.2109375 C185.95925049 248.87383789 186.48881348 249.53673828 187.03442383 250.21972656 C188.01953351 251.44800519 189.02850076 252.65770208 190.06518555 253.84277344 C191.37890625 255.5078125 191.37890625 255.5078125 193 259 C192.58550401 262.24153105 191.2888329 265.01684551 190 268 C189.33934109 269.86199346 188.6941842 271.72954088 188.0625 273.6015625 C187.72629639 274.57778564 187.39009277 275.55400879 187.04370117 276.55981445 C180.40606931 296.05349119 178.35635116 312.79283958 176 334 C34.43 334 -107.14 334 -253 334 C-250.68043179 331.68043179 -249.80687064 331.59821771 -246.64453125 331.08959961 C-245.27072044 330.86264404 -245.27072044 330.86264404 -243.86915588 330.63110352 C-242.86045944 330.47311279 -241.851763 330.31512207 -240.8125 330.15234375 C-239.75091171 329.97960937 -238.68932343 329.806875 -237.5955658 329.62890625 C-234.06498495 329.05685826 -230.53260392 328.49690844 -227 327.9375 C-224.54622825 327.54352993 -222.09253462 327.14907309 -219.63891602 326.75415039 C-213.11423009 325.7070897 -206.58765855 324.67223517 -200.06036377 323.64160156 C-196.65937198 323.10453883 -193.25876098 322.56510691 -189.85826683 322.0249033 C-182.50227971 320.85634585 -175.14518885 319.69504584 -167.78686523 318.54129028 C-165.22646164 318.13967944 -162.66623892 317.73691367 -160.10620117 317.33297729 C-156.51814374 316.76797475 -152.92917225 316.20920685 -149.33984375 315.65234375 C-148.27660385 315.48404053 -147.21336395 315.3157373 -146.11790466 315.14233398 C-141.3681987 314.41208432 -136.82336333 313.78260174 -132 314 C-132.02936646 312.35330322 -132.02936646 312.35330322 -132.05932617 310.67333984 C-132.19224177 299.86854392 -131.58478884 289.34956116 -130.3125 278.625 C-130.22352448 277.85341553 -130.13454895 277.08183105 -130.0428772 276.28686523 C-122.61721083 212.1921583 -102.1449477 149.96768074 -70 94 C-69.51031738 93.14712402 -69.02063477 92.29424805 -68.51611328 91.41552734 C-55.19564068 68.38907239 -39.98642515 46.03132975 -22.52734375 25.9296875 C-20.03670312 23.04254613 -17.63817759 20.09713333 -15.25 17.125 C-12.18681527 13.35492648 -9.00096065 9.87520039 -5.5078125 6.50390625 C-3.48002311 4.4813702 -1.72767337 2.28052885 0 0 Z M-42 176 C-46.17270315 183.54409093 -48.69818942 191.57457097 -51.3125 199.75 C-51.55333313 200.49920715 -51.79416626 201.24841431 -52.04229736 202.02032471 C-62.39992268 234.35672293 -72 269.82032895 -72 304 C-62.06796048 303.40669142 -52.30946691 302.12568498 -42.48535156 300.62329102 C-40.86937072 300.37970672 -39.25333093 300.13651327 -37.63723755 299.89367676 C-33.2902659 299.23913293 -28.94423773 298.57852492 -24.59843922 297.91624188 C-20.9645951 297.36289394 -17.33034699 296.81222372 -13.69611526 296.2614283 C-5.13199686 294.96328374 3.43130079 293.65982072 11.99414062 292.35327148 C20.83235072 291.0048278 29.67208261 289.66670777 38.51257682 288.33332878 C46.11377505 287.18642966 53.71390311 286.03262171 61.31322122 284.87333053 C65.84802519 284.18164751 70.38321283 283.49277358 74.919487 282.81079292 C79.17252329 282.1711385 83.42416644 281.52293243 87.67486954 280.86795807 C89.23815997 280.62858779 90.80193053 280.39233041 92.36618423 280.159338 C94.4925428 279.84213477 96.61691955 279.51398701 98.7411499 279.18287659 C99.93273586 279.00166039 101.12432182 278.8204442 102.35201645 278.63373661 C103.22585102 278.42460353 104.09968559 278.21547045 105 278 C105.33 277.34 105.66 276.68 106 276 C105.4831665 275.63874023 104.96633301 275.27748047 104.43383789 274.90527344 C91.91114877 266.15031401 79.41259357 257.36224079 66.93652344 248.54101562 C56.16186666 240.92400956 45.36200722 233.34374077 34.54833984 225.78222656 C29.53339256 222.27493444 24.52055142 218.76463287 19.50732422 215.25488281 C15.30376353 212.3121436 11.09967859 209.37015906 6.89453125 206.4296875 C-0.3911924 201.33414643 -7.67559847 196.23698684 -14.93725586 191.10717773 C-16.37313348 190.09336256 -17.81011079 189.08110273 -19.24829102 188.07055664 C-22.20398084 185.9915996 -25.13641587 183.89803968 -28.03125 181.734375 C-32.76902484 178.22385509 -36.02703071 176.12984716 -42 176 Z " fill="#2E1D5B" transform="translate(253,267)"/>
<path d="M0 0 C2.28651786 0.85500729 4.55603526 1.75606656 6.8125 2.6875 C26.89620451 10.48170887 47.54291753 12.70102688 69 15 C69 156.57 69 298.14 69 444 C68.34 443.67 67.68 443.34 67 443 C66.4336853 440.8379364 66.4336853 440.8379364 65.98193359 437.9284668 C65.80742676 436.83327728 65.63291992 435.73808777 65.453125 434.60971069 C65.27007813 433.40174835 65.08703125 432.19378601 64.8984375 430.94921875 C64.70072754 429.69178864 64.50301758 428.43435852 64.29931641 427.13882446 C63.7594759 423.7038197 63.23079974 420.26718039 62.70427704 416.83011246 C62.1560817 413.26299415 61.5982497 409.69738367 61.04150391 406.1315918 C60.13120842 400.29272238 59.22732803 394.45289221 58.328125 388.61230469 C57.27683163 381.78410793 56.21518723 374.95759843 55.14828491 368.13182068 C54.39702241 363.32376021 53.64898416 358.51520321 52.90216064 353.70645142 C52.55147693 351.448689 52.2002018 349.19101836 51.84832764 346.93344116 C51.36185726 343.80636819 50.87948136 340.67869297 50.3984375 337.55078125 C50.25519043 336.63390533 50.11194336 335.71702942 49.96435547 334.77236938 C49.83609375 333.93265594 49.70783203 333.0929425 49.57568359 332.2277832 C49.4637265 331.50291214 49.35176941 330.77804108 49.23641968 330.03120422 C49 328 49 328 49 324 C48.21802246 323.96036133 47.43604492 323.92072266 46.63037109 323.87988281 C-55.66685613 318.49346881 -152.49095522 282.85396935 -241 212 C-241.82999512 211.30753174 -241.82999512 211.30753174 -242.67675781 210.60107422 C-258.99626248 196.94441529 -258.99626248 196.94441529 -265 190 C-265 189.34 -265 188.68 -265 188 C-263.09524871 186.49608544 -261.18815796 185.11712983 -259.1875 183.75 C-257.89738999 182.84915455 -256.60838683 181.94672253 -255.3203125 181.04296875 C-254.27472168 180.31086182 -254.27472168 180.31086182 -253.20800781 179.56396484 C-249.2855002 176.78559424 -245.42638934 173.9215437 -241.5625 171.0625 C-239.95317965 169.87362393 -238.34380485 168.68482157 -236.734375 167.49609375 C-235.94740234 166.91456543 -235.16042969 166.33303711 -234.34960938 165.73388672 C-230.67626685 163.02315536 -226.9949009 160.32340705 -223.3125 157.625 C-222.67062744 157.15457275 -222.02875488 156.68414551 -221.36743164 156.19946289 C-219.91176235 155.13278247 -218.45590536 154.06635819 -217 153 C-213.61229787 154.4792455 -211.30508899 156.40833753 -208.625 158.9375 C-202.94211545 164.13850252 -196.9765287 168.87629774 -190.86962891 173.56298828 C-189.6369894 174.51040486 -188.40741211 175.46182084 -187.18115234 176.41748047 C-158.84825987 198.49122098 -126.60831942 218.14008067 -93 231 C-92.88965644 230.11864852 -92.77931288 229.23729704 -92.66562557 228.32923794 C-91.38424526 218.3821501 -89.7882601 208.51434767 -88.06665039 198.63500977 C-87.77543262 196.951257 -87.4844494 195.26746365 -87.19367981 193.58363342 C-86.41143229 189.05882316 -85.62537289 184.53468381 -84.83813405 180.01073956 C-84.34537193 177.17827569 -83.85336648 174.3456814 -83.36160088 171.51304436 C-81.64315157 161.61530825 -79.92126588 151.71817624 -78.1965332 141.8215332 C-76.59260821 132.61747681 -74.99681413 123.41203482 -73.404625 114.20594174 C-72.03258067 106.2751033 -70.65453741 98.34532205 -69.27191347 90.41632122 C-68.44820792 85.69186784 -67.6269758 80.96701725 -66.81193733 76.24106026 C-66.04642092 71.80332587 -65.27343996 67.36695537 -64.49477959 62.93150902 C-64.21111398 61.30826041 -63.93008898 59.68454769 -63.65196228 58.06034088 C-60.220995 38.04667272 -60.220995 38.04667272 -55.3125 33.5234375 C-54.219375 32.81445312 -53.12625 32.10546875 -52 31.375 C-50.73410695 30.5283847 -49.46987357 29.67928419 -48.20703125 28.828125 C-47.18923584 28.15233398 -47.18923584 28.15233398 -46.15087891 27.46289062 C-42.24194511 24.80428321 -38.47654999 21.9504903 -34.6875 19.125 C-28.3186741 14.410532 -21.90938083 9.75956393 -15.4375 5.1875 C-14.35698364 4.42300537 -14.35698364 4.42300537 -13.25463867 3.64306641 C-6.14197233 -1.35922938 -6.14197233 -1.35922938 0 0 Z M11 85 C10.07339971 86.19598543 9.19347966 87.42814035 8.33203125 88.671875 C7.49768555 89.87070312 7.49768555 89.87070312 6.64648438 91.09375 C6.04126953 91.9703125 5.43605469 92.846875 4.8125 93.75 C3.52743155 95.59901936 2.24227285 97.44797599 0.95703125 99.296875 C0.29783691 100.24755859 -0.36135742 101.19824219 -1.04052734 102.17773438 C-4.01421916 106.46079909 -7.00728726 110.73021535 -10 115 C-11.16418311 116.66267597 -12.32824509 118.32543677 -13.4921875 119.98828125 C-14.06936523 120.81279785 -14.64654297 121.63731445 -15.24121094 122.48681641 C-17.01816534 125.02595696 -18.79432974 127.56564851 -20.5703125 130.10546875 C-26.51542691 138.60593935 -32.47319464 147.0969828 -38.46142578 155.56713867 C-42.32373485 161.03352615 -46.16448625 166.51478603 -50 172 C-55.81396151 180.31372636 -61.65391184 188.60866569 -67.51025391 196.89257812 C-69.06328281 199.08952102 -70.61574865 201.28686059 -72.16796875 203.484375 C-72.69076416 204.22421631 -73.21355957 204.96405762 -73.75219727 205.72631836 C-74.77914161 207.18165162 -75.80441585 208.63816506 -76.82788086 210.09594727 C-78.94299562 213.1065843 -81.07100503 216.09503938 -83.2734375 219.04296875 C-86.78183751 223.77572877 -88.87027557 227.03267634 -89 233 C-81.59182904 237.05549872 -73.74179231 239.67058331 -65.75 242.3125 C-65.0244693 242.55333313 -64.2989386 242.79416626 -63.55142212 243.04229736 C-30.82783939 253.85544738 5.31992875 263.14983212 40 263 C36.64919216 240.97221165 33.29402611 218.94509106 29.93368721 196.91875458 C28.37348494 186.69126701 26.8147032 176.46356673 25.25927734 166.23535156 C23.90338133 157.31923496 22.54480794 148.40353113 21.18303382 139.48831034 C20.46225048 134.76888446 19.74279873 130.04926435 19.02655411 125.32914734 C18.35188357 120.88329284 17.67362501 116.43800035 16.99265289 111.99310684 C16.743825 110.36476249 16.49629013 108.73621991 16.25017166 107.10746384 C15.91283542 104.87638428 15.57076716 102.64607792 15.22756958 100.41589355 C15.03768023 99.16962944 14.84779087 97.92336533 14.65214729 96.63933563 C13.94510344 92.6936474 13.01229983 88.8774988 12 85 C11.67 85 11.34 85 11 85 Z " fill="#2E1D5B" transform="translate(532,756)"/>
<path d="M0 0 C141.57 0 283.14 0 429 0 C426.2701853 2.7298147 424.17183302 2.69166488 420.3671875 3.33984375 C419.6552121 3.46262695 418.94323669 3.58541016 418.20968628 3.71191406 C415.76624871 4.12960783 413.32082132 4.53401236 410.875 4.9375 C409.12272053 5.2318473 407.37044191 5.52619969 405.61816406 5.82055664 C387.17604342 8.89115538 368.69411846 11.72192308 350.2148819 14.55885696 C347.74842619 14.93774176 345.28213307 15.31767164 342.81585693 15.69772339 C338.88410825 16.30304973 334.95171116 16.90398386 331.01877213 17.50152588 C329.55033019 17.72511866 328.08207173 17.94992014 326.61400986 18.17599487 C324.58532114 18.48801819 322.5559676 18.79528941 320.52636719 19.10131836 C318.80990997 19.36276894 318.80990997 19.36276894 317.05877686 19.62950134 C314.33092575 19.95991615 311.74314512 20.07364645 309 20 C308.96559814 20.78608643 308.93119629 21.57217285 308.89575195 22.38208008 C304.18939048 123.62357697 268.19974097 221.72617226 175 334 C174.34 334 173.68 334 173 334 C171.80175781 332.64916992 171.80175781 332.64916992 170.453125 330.73046875 C169.94483154 330.01576416 169.43653809 329.30105957 168.9128418 328.56469727 C168.364104 327.78022217 167.81536621 326.99574707 167.25 326.1875 C166.07516213 324.53318381 164.89934784 322.87956068 163.72265625 321.2265625 C163.11180176 320.36579102 162.50094727 319.50501953 161.87158203 318.61816406 C158.8557511 314.39930535 155.77226631 310.23108049 152.6875 306.0625 C147.76283824 299.39557827 142.85896812 292.71503358 138 286 C139.54326422 282.37958555 141.73902705 279.96595232 144.4375 277.125 C167.29884409 252.54434898 185.02973751 223.35160807 201 194 C201.39751465 193.26958496 201.7950293 192.53916992 202.20458984 191.78662109 C207.50249107 182.01143532 212.38708071 172.11623392 217 162 C215.645933 161.84740471 215.645933 161.84740471 214.26451111 161.69172668 C202.51977923 160.3023734 190.90223576 158.35731017 179.25390625 156.32421875 C177.14220288 155.9585212 175.03044612 155.59313187 172.91864014 155.22802734 C166.13230776 154.05330227 159.34733779 152.87082198 152.5625 151.6875 C150.2327828 151.28151693 147.9030607 150.87556203 145.57333374 150.46963501 C136.16775871 148.83045508 126.7622946 147.19065101 117.35762024 145.54631042 C104.73036686 143.33961754 92.09954773 141.15646374 79.46192932 139.00993347 C73.4458811 137.98766189 67.43216364 136.95203897 61.41928768 135.91128254 C57.49464366 135.23264984 53.5690903 134.56100297 49.64041138 133.90609741 C46.0189425 133.30228284 42.40110279 132.68024871 38.78528595 132.04348755 C36.87273365 131.71170094 34.95674938 131.39988722 33.04071045 131.08886719 C22.85829363 129.26343775 22.85829363 129.26343775 19 124 C18.46189697 123.33661621 17.92379395 122.67323242 17.36938477 121.98974609 C16.89815186 121.34086426 16.42691895 120.69198242 15.94140625 120.0234375 C15.12555054 118.90763306 15.12555054 118.90763306 14.29321289 117.76928711 C13.72207764 116.97917236 13.15094238 116.18905762 12.5625 115.375 C11.32308394 113.67565924 10.08349549 111.97644419 8.84375 110.27734375 C8.21082031 109.40706543 7.57789063 108.53678711 6.92578125 107.64013672 C4.42345949 104.2095957 1.89818868 100.79634598 -0.62890625 97.3840332 C-2.39478185 94.99528599 -4.15148594 92.60004194 -5.90625 90.203125 C-7.73183962 87.71066345 -9.57618392 85.23879332 -11.46875 82.796875 C-12.1184375 81.93578125 -12.768125 81.0746875 -13.4375 80.1875 C-13.97246094 79.50042969 -14.50742187 78.81335938 -15.05859375 78.10546875 C-17.33295436 73.01882822 -14.07360058 67.13937039 -12.32080078 62.21020508 C-8.95012125 52.6952978 -6.11969982 43.21186119 -4.125 33.3125 C-3.83931152 31.92937622 -3.83931152 31.92937622 -3.54785156 30.51831055 C-1.61772473 20.35896756 -0.9909698 10.40518293 0 0 Z M235.40562439 30.89767456 C234.76855248 30.99426869 234.13148056 31.09086281 233.47510344 31.19038403 C231.35374119 31.51313588 229.23341851 31.84225752 227.11303711 32.17138672 C225.58652533 32.40497687 224.05995304 32.6381718 222.5333252 32.8710022 C218.39388643 33.50346532 214.25531599 34.14145293 210.11687922 34.78043509 C205.7739329 35.45002692 201.4302071 36.11452335 197.08656311 36.77957153 C188.84977452 38.04148366 180.61369604 39.30796985 172.37786251 40.57609856 C163.05413439 42.01151195 153.72962885 43.44184224 144.40505207 44.87173057 C128.44083802 47.31989451 112.47723718 49.77202602 96.51423645 52.22808838 C95.83927411 52.33180889 95.16431177 52.43552941 94.46889603 52.54239297 C92.53977373 52.83965016 90.61108797 53.13973605 88.68241692 53.43990707 C86.19205121 53.81868988 83.69894154 54.17978737 81.20364571 54.52460098 C80.02696768 54.69035503 78.85028965 54.85610909 77.63795471 55.02688599 C76.5971 55.16737932 75.55624529 55.30787266 74.48384953 55.45262337 C71.83938984 55.80170291 71.83938984 55.80170291 70 58 C71.02996094 58.72703125 72.05992187 59.4540625 73.12109375 60.203125 C73.80018799 60.68249512 74.47928223 61.16186523 75.17895508 61.65576172 C76.70870429 62.73556524 78.23849056 63.81531627 79.76831055 64.89501953 C83.58336218 67.58767699 87.3979917 70.28092372 91.2109375 72.9765625 C105.93029694 83.38032579 120.70023603 93.71097038 135.5 104 C146.01585105 111.31078571 156.51748632 118.64148735 167 126 C167.73412109 126.5151416 168.46824219 127.0302832 169.22460938 127.56103516 C176.54309868 132.70014566 183.8387047 137.86838874 191.08398438 143.11035156 C192.634463 144.23171432 194.18651082 145.35091108 195.74023438 146.46777344 C198.88636127 148.73104446 202.00678926 151.00524507 205.07421875 153.375 C205.91597656 154.014375 206.75773438 154.65375 207.625 155.3125 C208.29789063 155.84488281 208.97078125 156.37726563 209.6640625 156.92578125 C213.16549765 158.535973 216.16941374 158.17265745 220 158 C220.268125 157.05125 220.53625 156.1025 220.8125 155.125 C222.9807756 147.56259345 225.28873342 140.08025251 227.8581543 132.64355469 C238.92804946 100.4624525 248 64.23983633 248 30 C243.69315093 29.90662745 239.66135728 30.24400957 235.40562439 30.89767456 Z " fill="#2E1D5B" transform="translate(771,599)"/>
<path d="M0 0 C2.7298147 2.7298147 2.69166488 4.82816698 3.33984375 8.6328125 C3.52401855 9.70070763 3.52401855 9.70070763 3.71191406 10.79017639 C4.1296343 13.23365593 4.53404703 15.6791265 4.9375 18.125 C5.08051544 18.97671783 5.22353088 19.82843567 5.37088013 20.70596313 C8.61339248 40.01690116 11.58364039 59.37324022 14.55885696 78.72682953 C14.93751597 81.1876038 15.31751012 83.64816906 15.69772339 86.10870361 C16.30369931 90.03387528 16.90455747 93.95979925 17.50152588 97.88635063 C17.72485338 99.3512159 17.94964662 100.81585854 18.17599487 102.28026009 C18.48872055 104.30625068 18.79573953 106.33302827 19.10131836 108.36010742 C19.36276894 110.07323372 19.36276894 110.07323372 19.62950134 111.82096863 C19.98997892 114.91401499 20.0675885 117.88936842 20 121 C21.64669678 120.97063354 21.64669678 120.97063354 23.32666016 120.94067383 C34.13134051 120.80775965 44.65058379 121.41453576 55.375 122.6875 C56.14791382 122.77680786 56.92082764 122.86611572 57.71716309 122.95812988 C138.27487392 132.31266081 219.53610601 162.13079954 284.21826172 211.64648438 C286.12166503 213.09242408 288.04460288 214.50899302 289.97265625 215.921875 C301.81165729 224.62777201 312.85478841 234.0822418 323.734375 243.953125 C327.11923712 247.01117285 330.55636722 250.00846426 334 253 C332.6316445 256.18010793 331.19887813 257.92638671 328.46484375 260.03125 C327.38698608 260.8672876 327.38698608 260.8672876 326.28735352 261.72021484 C325.12417603 262.6012085 325.12417603 262.6012085 323.9375 263.5 C323.13691162 264.11439941 322.33632324 264.72879883 321.51147461 265.36181641 C314.11425664 270.99882894 306.5325361 276.35845716 298.89941406 281.66894531 C294.55315715 284.71467702 290.27755129 287.85881763 286 291 C282.61229787 289.5207545 280.30508899 287.59166247 277.625 285.0625 C271.36307454 279.33155652 264.73386817 274.15785647 258 269 C257.35724121 268.50564453 256.71448242 268.01128906 256.05224609 267.50195312 C228.20165981 246.13448283 197.80281856 228.28053373 165.49488831 214.49160767 C164.34157516 213.99937714 163.18826202 213.50714661 162 213 C161.84529739 214.15579056 161.69059479 215.31158112 161.53120422 216.50239563 C159.40703851 232.02413745 156.74936185 247.44668655 154.04710937 262.8758142 C153.39900993 266.58032797 152.75458482 270.28548114 152.10969543 273.99055481 C151.02499834 280.21957191 149.93803247 286.44818927 148.84936523 292.67651367 C147.33603157 301.33438232 145.82666938 309.99293959 144.31820333 318.65165746 C142.75437343 327.62721356 141.18968682 336.60262134 139.62295347 345.57767111 C139.38282726 346.95386117 139.14299832 348.33010314 138.90347046 349.70639747 C138.31770584 353.06864978 137.72604899 356.42964769 137.12141705 359.78856182 C135.97928067 366.16543932 134.90130087 372.53865875 133.99701732 378.95419353 C133.55361883 382.07024583 133.07830095 385.18106498 132.60016501 388.29195273 C132.38129415 389.7734269 132.17752352 391.25722626 131.99037015 392.74304044 C131.04769944 400.19568565 130.14160219 405.85758018 124.0065155 410.81095886 C122.36134852 411.91025213 120.69433024 412.97810708 119 414 C117.86916464 414.81571627 116.74436867 415.63994715 115.62890625 416.4765625 C114.61699219 417.18554688 113.60507812 417.89453125 112.5625 418.625 C107.58036599 422.13935963 102.64860514 425.71502734 97.74707031 429.34106445 C95.29306054 431.15565928 92.83227512 432.96077534 90.37109375 434.765625 C87.82976867 436.63333932 85.31609813 438.52149772 82.84765625 440.484375 C82.01105469 441.12890625 81.17445313 441.7734375 80.3125 442.4375 C79.31669922 443.23994141 79.31669922 443.23994141 78.30078125 444.05859375 C73.55594743 446.0000283 68.6472896 444.38137962 64.08984375 442.546875 C62.70459525 441.95054384 61.32053624 441.3514441 59.9375 440.75 C40.69405528 432.91000347 20.66524927 431.29613881 0 429 C0 287.43 0 145.86 0 0 Z M30 181 C30.6294848 190.54027753 31.93451817 199.94133587 33.37670898 209.38525391 C33.62023253 210.99947383 33.86342794 212.61374329 34.10632324 214.22805786 C34.76155142 218.57504991 35.42193108 222.92124355 36.08375812 227.26723528 C36.49725422 229.98418757 36.90960326 232.70131143 37.32155037 235.41849899 C38.75917055 244.90088383 40.2009649 254.38262298 41.64672852 263.86376953 C42.99426679 272.70150509 44.33257281 281.54060591 45.66667122 290.38037932 C46.81411272 297.98064037 47.96789652 305.57992076 49.12666947 313.17846239 C49.81804325 317.71279894 50.50681687 322.24749367 51.18920708 326.78319168 C51.8295241 331.03775318 52.47769497 335.29104289 53.13204193 339.54346848 C53.37115085 341.1063779 53.60741047 342.66972619 53.840662 344.23352051 C54.15853518 346.36165226 54.48648886 348.48798564 54.81712341 350.61416626 C55.0889477 352.40211074 55.0889477 352.40211074 55.36626339 354.22617531 C55.76967477 357.12424111 55.76967477 357.12424111 58 359 C59.09054687 357.45505859 59.09054687 357.45505859 60.203125 355.87890625 C73.046875 337.68359375 73.046875 337.68359375 74.52587891 335.58837891 C75.51779189 334.18314147 76.50965293 332.77786737 77.50146484 331.37255859 C79.97634216 327.86601442 82.4520561 324.36006761 84.9296875 320.85546875 C92.05528657 310.77370579 99.14304727 300.66585511 106.21777344 290.54833984 C109.72506556 285.53339256 113.23536713 280.52055142 116.74511719 275.50732422 C119.6878564 271.30376353 122.62984094 267.09967859 125.5703125 262.89453125 C130.61731636 255.6780071 135.66549667 248.46234355 140.74072266 241.265625 C141.7341805 239.85659259 142.72608522 238.44646362 143.71630859 237.03515625 C146.08625694 233.66627749 148.48798469 230.33129189 150.96875 227.04296875 C151.43764648 226.41310059 151.90654297 225.78323242 152.38964844 225.13427734 C153.26634908 223.96020337 154.15427154 222.79438535 155.05566406 221.63916016 C157.77077728 217.98039325 158.46163528 215.52809903 158 211 C120.762473 190.95960677 71.53099551 183.75775689 30 181 Z " fill="#2E1D5B" transform="translate(599,0)"/>
<path d="M0 0 C0.33 0.66 0.66 1.32 1 2 C-6.39848472 13.08205233 -14.26670174 23.7306226 -22.3984375 34.28515625 C-23.01170898 35.09227051 -23.62498047 35.89938477 -24.25683594 36.73095703 C-25.36508076 38.1735379 -26.4963842 39.59890786 -27.65722656 40.99951172 C-29.29045719 42.96066328 -29.29045719 42.96066328 -31 46 C-30.33554327 50.37380252 -27.58284455 52.68146942 -24.4375 55.625 C-20.01963884 59.90975487 -16.09791094 64.37273114 -12.26171875 69.1796875 C-9.99831202 72.00210487 -7.66150602 74.74863568 -5.3125 77.5 C58.36378214 153.91153856 100.40145227 259.22539404 101 362 C89.86679951 361.47532885 78.95229167 359.73313958 67.95800781 357.98876953 C64.8479047 357.4957044 61.736584 357.01096667 58.625 356.52734375 C56.6431536 356.21662741 54.66137995 355.90544665 52.6796875 355.59375 C51.28760574 355.37652283 51.28760574 355.37652283 49.86740112 355.15490723 C49.00865387 355.01806519 48.14990662 354.88122314 47.26513672 354.74023438 C46.13481522 354.56155823 46.13481522 354.56155823 44.98165894 354.37927246 C43 354 43 354 40 353 C39.81993408 351.41807861 39.81993408 351.41807861 39.63623047 349.80419922 C35.22285537 311.38053523 28.12631202 274.54439679 15.6875 237.8125 C15.4747644 237.17609589 15.26202881 236.53969177 15.04284668 235.88400269 C14.44011114 234.09183124 13.82006003 232.3055113 13.19921875 230.51953125 C12.84690186 229.49964111 12.49458496 228.47975098 12.1315918 227.42895508 C11.11782658 224.70301702 11.11782658 224.70301702 8 223 C2.14898161 225.7457293 -2.89296059 228.88973743 -8.0625 232.75 C-9.64838954 233.91460107 -11.23569962 235.07726951 -12.82421875 236.23828125 C-13.66130371 236.85010254 -14.49838867 237.46192383 -15.36083984 238.09228516 C-19.9881787 241.43715341 -24.68189897 244.68585986 -29.375 247.9375 C-30.34526123 248.61039063 -31.31552246 249.28328125 -32.31518555 249.9765625 C-34.26335817 251.32752889 -36.21168046 252.67827949 -38.16015625 254.02880859 C-49.33436902 261.78504948 -60.46095345 269.60970357 -71.56787109 277.46191406 C-77.033983 281.32410489 -82.51502648 285.16465439 -88 289 C-96.30940316 294.81093821 -104.59990212 300.64801068 -112.87939453 306.50146484 C-115.11540352 308.0815504 -117.35248556 309.66010678 -119.58984375 311.23828125 C-120.34885986 311.77372559 -121.10787598 312.30916992 -121.88989258 312.86083984 C-123.32844823 313.8756069 -124.76708135 314.89026416 -126.20581055 315.90478516 C-126.86234619 316.36804199 -127.51888184 316.83129883 -128.1953125 317.30859375 C-128.84145508 317.75187012 -129.48759766 318.19514648 -130.15332031 318.65185547 C-132.01572681 319.95331768 -132.01572681 319.95331768 -133.58886719 321.49267578 C-136.23285885 323.84857136 -138.06547029 324.97795898 -141.67973328 325.0632019 C-150.25935158 324.25018421 -158.76239317 323.10815759 -167.27734375 321.78515625 C-168.70166422 321.5669019 -170.12602731 321.34892552 -171.5504303 321.13121033 C-174.50816074 320.67797919 -177.46532364 320.22125254 -180.42211914 319.76196289 C-184.19900118 319.17560559 -187.97722872 318.59848572 -191.75592709 318.02396488 C-194.68624741 317.57734507 -197.61578152 317.1257315 -200.54510689 316.67263603 C-201.93823813 316.4577862 -203.33161125 316.24449836 -204.72523308 316.03285408 C-206.67038796 315.73671577 -208.61439663 315.43307843 -210.55834961 315.12915039 C-211.66053329 314.95895889 -212.76271698 314.7887674 -213.89830017 314.61341858 C-222.23156147 312.96536184 -222.23156147 312.96536184 -224.50048828 310.11499023 C-225.03005127 308.97332397 -225.03005127 308.97332397 -225.5703125 307.80859375 C-225.98539063 306.95450928 -226.40046875 306.1004248 -226.828125 305.22045898 C-227.25609375 304.30208252 -227.6840625 303.38370605 -228.125 302.4375 C-235.19320049 288.16564145 -243.73285846 275.76309493 -254.91796875 264.41796875 C-258.18623335 260.6223669 -258.18623335 260.6223669 -258 258 C-256.22726188 255.87514267 -254.52582334 254.104627 -252.5 252.25 C-249.13320175 249.08420463 -245.8819782 245.9230835 -242.885993 242.39881229 C-238.62822041 237.50262427 -234.07273586 232.93396457 -229.48036194 228.3533783 C-228.5311072 227.40296913 -227.58207019 226.45234245 -226.63323015 225.50151926 C-224.04436442 222.90850438 -221.45242018 220.31858658 -218.85992539 217.72920072 C-216.05711498 214.92866227 -213.25719529 212.12523619 -210.45689392 209.32218933 C-204.97817063 203.83902855 -199.49675838 198.35856358 -194.01436479 192.87907284 C-189.55719325 188.42416327 -185.10100309 183.96827426 -180.64550591 179.51169014 C-180.01043103 178.87646203 -179.37535616 178.24123393 -178.72103659 177.58675649 C-177.43074095 176.29614111 -176.14044755 175.00552349 -174.85015636 173.71490366 C-162.76208202 161.62398044 -150.67094923 149.53611947 -138.57876205 137.44930971 C-128.21198544 127.08700061 -117.84783343 116.7220725 -107.4855957 106.35522461 C-95.44087525 94.30514794 -83.39452817 82.25670123 -71.3455953 70.21083647 C-70.0598314 68.9253911 -68.77406958 67.63994365 -67.48830986 66.35449409 C-66.85575511 65.72209362 -66.22320036 65.08969314 -65.57147728 64.43812902 C-61.12237756 59.9898913 -56.67443636 55.54049718 -52.22694588 51.09065056 C-46.8040365 45.66493136 -41.37933831 40.24100819 -35.95236666 34.81935208 C-33.18558396 32.05519044 -30.41959374 29.29024836 -27.65578079 26.52311707 C-25.12210195 23.98644231 -22.58609656 21.45211722 -20.04827421 18.91958804 C-18.70380078 17.57674768 -17.36176157 16.23147148 -16.01983219 14.88608879 C-11.6446144 10.52490836 -7.19841625 6.31641973 -2.50851721 2.29423147 C-1.64851229 1.55639075 -0.80125445 0.80125445 0 0 Z M-70 98 C-71.28456435 99.39703022 -71.28456435 99.39703022 -72.546875 101.26953125 C-73.05468506 101.98359131 -73.56249512 102.69765137 -74.08569336 103.43334961 C-74.63491455 104.21846924 -75.18413574 105.00358887 -75.75 105.8125 C-76.93269023 107.47720478 -78.11631402 109.14124663 -79.30078125 110.8046875 C-79.91260254 111.66674805 -80.52442383 112.52880859 -81.15478516 113.41699219 C-84.03969722 117.45541103 -86.98638263 121.44733299 -89.9375 125.4375 C-90.80810059 126.61662964 -90.80810059 126.61662964 -91.69628906 127.81958008 C-92.87518853 129.41623699 -94.05438772 131.01267265 -95.23388672 132.60888672 C-98.15956103 136.56991162 -101.07950306 140.53515717 -104 144.5 C-105.1666389 146.08335379 -106.33330558 147.66668712 -107.5 149.25 C-108.0775 150.03375 -108.655 150.8175 -109.25 151.625 C-114.5 158.75 -114.5 158.75 -116.25024414 161.12524414 C-117.41620806 162.70768185 -118.58206104 164.29020131 -119.74780273 165.87280273 C-122.67431443 169.84551887 -125.60277534 173.81676994 -128.53515625 177.78515625 C-134.22964599 185.49539457 -139.89882943 193.22163589 -145.5 201 C-149.94433079 207.17185688 -154.42286583 213.316867 -158.9375 219.4375 C-159.51016602 220.21424072 -160.08283203 220.99098145 -160.67285156 221.79125977 C-163.7492966 225.96047117 -166.83406737 230.12334894 -169.92578125 234.28125 C-170.56588135 235.14435791 -171.20598145 236.00746582 -171.86547852 236.89672852 C-173.09381448 238.55280993 -174.32465249 240.20703936 -175.55834961 241.85913086 C-176.11143799 242.60557861 -176.66452637 243.35202637 -177.234375 244.12109375 C-177.72131836 244.7752124 -178.20826172 245.42933105 -178.70996094 246.10327148 C-180.003575 248.00525627 -180.9915257 249.93620283 -182 252 C-170.03670685 250.40204596 -158.16270936 248.35584237 -146.2734375 246.2890625 C-144.14499551 245.92056535 -142.01652601 245.55222708 -139.88803101 245.18403625 C-134.21887407 244.20275075 -128.55019339 243.21874103 -122.88163757 242.23398972 C-119.37028733 241.62418156 -115.85881074 241.01510631 -112.34729004 240.40628052 C-83.53150082 235.41002212 -54.71877778 230.39620784 -25.91706085 225.31938934 C-23.7540685 224.93821697 -21.5909988 224.55748597 -19.42791748 224.17681885 C-15.48803789 223.48321816 -11.54865373 222.78684901 -7.609375 222.08984375 C-6.47277435 221.88966141 -5.33617371 221.68947906 -4.16513062 221.48323059 C-3.135784 221.3004808 -2.10643738 221.11773102 -1.04589844 220.92944336 C-0.16045349 220.77277695 0.72499146 220.61611053 1.63726807 220.45469666 C3.78294467 220.04177128 5.88696806 219.55428715 8 219 C7.38753484 215.22320233 6.28765181 212.15287303 4.62890625 208.7109375 C4.14252686 207.69700928 3.65614746 206.68308105 3.1550293 205.63842773 C2.62949463 204.56149658 2.10395996 203.48456543 1.5625 202.375 C1.01827393 201.25488525 0.47404785 200.13477051 -0.08666992 198.98071289 C-1.71391009 195.64849588 -3.35369406 192.32283343 -5 189 C-5.43022461 188.12875488 -5.86044922 187.25750977 -6.30371094 186.35986328 C-19.67447612 159.50297299 -36.78601357 134.96446426 -56 112 C-56.56235352 111.32259766 -57.12470703 110.64519531 -57.70410156 109.94726562 C-59.35771814 107.95839269 -61.02047758 105.977643 -62.6875 104 C-63.19289307 103.39381836 -63.69828613 102.78763672 -64.21899414 102.16308594 C-65.43512033 100.73648845 -66.71222731 99.36227193 -68 98 C-68.66 98 -69.32 98 -70 98 Z " fill="#2E1D5B" transform="translate(979,220)"/>
<path d="M0 0 C-0.55339504 10.60485591 -2.31378143 21.01534522 -4.01123047 31.484375 C-4.50325296 34.52007022 -4.9884826 37.55679401 -5.47265625 40.59375 C-5.78346311 42.53131277 -6.09464733 44.46881505 -6.40625 46.40625 C-6.55106812 47.31040649 -6.69588623 48.21456299 -6.84509277 49.14611816 C-6.98193481 49.98799683 -7.11877686 50.82987549 -7.25976562 51.69726562 C-7.43844177 52.80213318 -7.43844177 52.80213318 -7.62072754 53.92932129 C-7.9964351 55.98053707 -8.47139692 57.98328751 -9 60 C-9.90234375 60.09796875 -10.8046875 60.1959375 -11.734375 60.296875 C-52.49320462 64.83972019 -92.59724551 72.27014121 -130.98828125 87.0390625 C-133.86994271 87.95850312 -136.00304437 88.21366663 -139 88 C-138.90402315 97.98159288 -132.52498297 104.45855342 -126.66113281 111.86035156 C-123.98854026 115.30282674 -121.4939804 118.86455186 -119 122.4375 C-118.50435547 123.14422852 -118.00871094 123.85095703 -117.49804688 124.57910156 C-116.49498303 126.00954086 -115.49270276 127.44052995 -114.49121094 128.87207031 C-112.53638658 131.66156754 -110.56964493 134.4425449 -108.60253906 137.22338867 C-97.98430542 152.23664467 -87.46735313 167.32053969 -76.97070312 182.41894531 C-68.73495946 194.26231145 -60.47417539 206.08838246 -52.16186523 217.87817383 C-51.15180792 219.31375489 -50.14597448 220.75231887 -49.14477539 222.1940918 C-47.00854577 225.25382037 -44.86286799 228.16120863 -42.44140625 231.0078125 C-37.0863077 237.37453278 -37.0863077 237.37453278 -36.8404541 242.00479126 C-37.00934143 243.63944839 -37.00934143 243.63944839 -37.18164062 245.30712891 C-37.3028125 246.54384338 -37.42398437 247.78055786 -37.54882812 249.05474854 C-37.69771484 250.35668152 -37.84660156 251.6586145 -38 253 C-38.20399414 254.92703766 -38.20399414 254.92703766 -38.41210938 256.89300537 C-39.29135311 264.98664799 -40.37210451 273.05417679 -41.50399017 281.115942 C-42.0704082 285.15937795 -42.60588877 289.20206129 -43.07275391 293.25830078 C-46.12846999 319.56528613 -46.12846999 319.56528613 -50.83267212 325.19210815 C-54.856505 328.22701459 -59.00758575 329.45087689 -63.89096069 330.42071533 C-67.59950952 331.43933337 -70.5738142 333.61783966 -73.6875 335.8125 C-74.3288942 336.25466354 -74.97028839 336.69682709 -75.63111877 337.15238953 C-85.22553224 343.80959761 -94.33524536 351.17779653 -103 359 C-109.13017556 353.92632796 -114.73878155 348.40456866 -120.35725403 342.77645874 C-121.3969862 341.73859715 -122.43693375 340.70095129 -123.47707671 339.66350138 C-126.32144272 336.82522854 -129.16270186 333.98386359 -132.00343168 331.14195204 C-135.07249115 328.07268794 -138.14441309 325.00629099 -141.21594238 321.9394989 C-147.22637923 315.93735396 -153.23404878 309.93244663 -159.24062011 303.92643355 C-164.12101723 299.04651199 -169.00220411 294.16738182 -173.88394737 289.28880692 C-187.72446753 275.45708691 -201.5628956 261.6232787 -215.39864115 247.78678267 C-216.14389377 247.04149009 -216.88914639 246.29619751 -217.65698242 245.52832031 C-218.4031436 244.78211826 -219.14930477 244.0359162 -219.9180769 243.26710196 C-232.02724085 231.15753101 -244.14139277 219.05296353 -256.25780038 206.95064072 C-268.69872172 194.52406754 -281.13592669 182.09378556 -293.56924361 169.65960371 C-300.54990992 162.67860505 -307.53211651 155.69916296 -314.51832008 148.72370529 C-320.46207973 142.78902979 -326.402392 136.85093061 -332.33820722 130.90830873 C-335.36780626 127.8754348 -338.39901398 124.84421506 -341.43456841 121.8173008 C-344.21124999 119.0484417 -346.98330683 116.27503977 -349.75169536 113.49788971 C-350.75582292 112.49221782 -351.76165579 111.48824525 -352.76932404 110.4861211 C-354.13531445 109.12715198 -355.49459305 107.7614462 -356.85349751 106.39539146 C-357.61142198 105.63768436 -358.36934645 104.87997725 -359.15023834 104.09930933 C-360.88562339 102.12980693 -361.96971517 100.39934326 -363 98 C-357.72274968 99.63994233 -353.7250049 102.96696906 -349.375 106.25 C-347.68371862 107.51188613 -345.99230842 108.77359962 -344.30078125 110.03515625 C-342.99681396 111.01186279 -342.99681396 111.01186279 -341.66650391 112.00830078 C-337.31570259 115.25805697 -332.9380109 118.47113805 -328.5625 121.6875 C-327.00105794 122.83690799 -325.4398435 123.9866253 -323.87890625 125.13671875 C-323.2247876 125.61842529 -322.57066895 126.10013184 -321.89672852 126.59643555 C-320.53990796 127.60047228 -319.20378959 128.6327275 -317.88232422 129.68286133 C-316.10999995 131.2028099 -316.10999995 131.2028099 -314.00390625 130.9375 C-311.38717447 129.713298 -309.90346042 128.11662281 -307.9375 126 C-303.84171123 121.76389873 -299.53056607 118.04994677 -294.93359375 114.37109375 C-292.38580492 112.31182901 -289.89177839 110.20333579 -287.41186523 108.06323242 C-266.40333316 89.99223895 -242.99028328 74.7909911 -219 61 C-218.1745166 60.52143555 -217.3490332 60.04287109 -216.49853516 59.54980469 C-152.8019763 22.86156579 -73.86896467 -2.29776733 0 0 Z M-144 91 C-184.15131063 109.86003483 -221.28629908 131.58125652 -255.0625 160.4921875 C-258.02240236 163.01912542 -261.00587785 165.51380929 -264 168 C-262.70426824 171.88719529 -260.37310319 173.10752133 -257.125 175.3125 C-255.83877904 176.20810828 -254.55368226 177.10533253 -253.26953125 178.00390625 C-252.57811035 178.48617676 -251.88668945 178.96844727 -251.17431641 179.46533203 C-247.34429283 182.16862512 -243.5808079 184.9616459 -239.8125 187.75 C-238.61113403 188.63703613 -238.61113403 188.63703613 -237.38549805 189.54199219 C-234.92298923 191.36041504 -232.46140559 193.18008419 -230 195 C-226.81343115 197.35543019 -223.62605578 199.70976014 -220.4375 202.0625 C-219.261875 202.9299585 -219.261875 202.9299585 -218.0625 203.81494141 C-212.6706486 207.78653822 -207.24902351 211.71484675 -201.8125 215.625 C-195.49363171 220.16995877 -189.24459167 224.79681273 -183.03173828 229.48535156 C-177.38335203 233.73730414 -171.65903126 237.87814346 -165.91967773 242.00610352 C-160.44196726 245.94932992 -154.99347808 249.93017094 -149.5625 253.9375 C-148.78165039 254.51363037 -148.00080078 255.08976074 -147.19628906 255.68334961 C-143.95490953 258.07641496 -140.71485019 260.47125975 -137.47558594 262.8671875 C-124.35530144 272.59730431 -124.35530144 272.59730431 -111 282 C-109.98793406 278.96380219 -109.980976 278.02443027 -110.51358032 275.00585938 C-110.65326013 274.19313537 -110.79293993 273.38041136 -110.93685246 272.54305935 C-111.17814711 271.20690122 -111.17814711 271.20690122 -111.42431641 269.84375 C-111.58885283 268.89924264 -111.75338926 267.95473528 -111.92291164 266.98160648 C-112.47550213 263.8198067 -113.03858542 260.65996557 -113.6015625 257.5 C-113.9945182 255.26292944 -114.38679279 253.02573915 -114.77842712 250.78843689 C-115.83369494 244.77029274 -116.89780543 238.75374342 -117.96367264 232.73746872 C-119.06257083 226.5270836 -120.15409907 220.31540471 -121.24584961 214.10375977 C-121.68441178 211.60895928 -122.12299517 209.11416254 -122.56159973 206.61936951 C-122.77874949 205.38421537 -122.99589924 204.14906124 -123.21962929 202.8764782 C-123.88049637 199.11986743 -124.54243656 195.3634471 -125.20463562 191.60707092 C-127.70850867 177.39722907 -130.18675941 163.18340149 -132.6199646 148.96128464 C-133.08164069 146.26279056 -133.54411901 143.56443516 -134.00683594 140.86611938 C-136.32484108 127.34413849 -136.32484108 127.34413849 -137.37652588 121.13793945 C-138.00592321 117.42388661 -138.64096388 113.71084418 -139.28039742 109.99850655 C-139.61695313 108.03459409 -139.94689704 106.0695521 -140.27659607 104.10447693 C-140.47608353 102.95101273 -140.67557098 101.79754852 -140.88110352 100.60913086 C-141.050298 99.61441269 -141.21949249 98.61969452 -141.39381409 97.59483337 C-141.97076012 95.12516394 -142.75919803 93.20049827 -144 91 Z " fill="#2E1D5B" transform="translate(582,121)"/>
<path d="M0 0 C2.71218637 1.16708128 4.28736658 2.73033966 6.37616855 4.82082945 C7.23324777 5.67131882 8.09032699 6.5218082 8.9733783 7.39806998 C9.91983283 8.35239301 10.86614711 9.30685515 11.81233627 10.26144129 C12.82073743 11.26781888 13.82979556 12.27353854 14.83945465 13.2786541 C17.61707687 16.04760749 20.38522841 18.82586479 23.15195626 21.60569805 C26.13574043 24.60035915 29.12814952 27.58637955 32.11951095 30.57346827 C37.98163354 36.42994927 43.83573274 42.29438837 49.68723414 48.16147942 C56.50264812 54.99441601 63.32609887 61.81930311 70.14995059 68.64381146 C82.32931187 80.82486211 94.50158902 93.01296716 106.66980392 105.20515162 C118.47296704 117.0315483 130.28064376 128.85341251 142.09363204 140.66999537 C142.82043724 141.39702334 143.54724244 142.1240513 144.29607204 142.87311042 C145.76027355 144.33775454 147.22447535 145.80239836 148.68867744 147.26704189 C149.4109901 147.98957412 150.13330277 148.71210635 150.87750369 149.45653349 C151.958264 150.53761778 151.958264 150.53761778 153.06085785 151.64054215 C164.31992564 162.90331549 175.57516381 174.1699154 186.82987839 185.43703859 C190.90662084 189.51821061 194.98385759 193.59888804 199.06143925 197.67922158 C205.53400977 204.15623353 212.00489373 210.63492083 218.47241662 217.11697335 C221.42695967 220.07810369 224.38225025 223.03847669 227.33969337 225.99671084 C230.05046542 228.70827419 232.7588963 231.42215392 235.46552046 234.13785743 C236.90202445 235.57802902 238.34093168 237.01580227 239.77994072 238.45347083 C246.59679916 245.30060382 252.9318086 252.4448226 259.07727462 259.89387232 C253.8000243 258.25392999 249.80227952 254.92690326 245.45227462 251.64387232 C243.76099324 250.38198619 242.06958304 249.1202727 240.37805587 247.85871607 C239.50874435 247.20757838 238.63943282 246.55644068 237.74377853 245.88557154 C233.39297721 242.63581535 229.01528552 239.42273427 224.63977462 236.20637232 C223.07833256 235.05696433 221.51711812 233.90724702 219.95618087 232.75715357 C219.30206222 232.27544703 218.64794357 231.79374048 217.97400314 231.29743677 C216.0019384 229.8381241 214.03836482 228.36789081 212.07727462 226.89387232 C208.74476438 228.36077863 206.42304849 230.23174431 203.76477462 232.70637232 C191.67272336 243.75539576 179.23410728 254.13084128 166.07727462 263.89387232 C164.98841964 264.70622339 164.98841964 264.70622339 163.87756759 265.5349856 C88.97306088 321.24593637 -9.50056359 359.9243267 -103.92272538 358.89387232 C-103.35684542 348.15370167 -101.5913853 337.59217449 -99.91149491 326.98225123 C-99.41959488 323.87409168 -98.93433336 320.76494857 -98.45006913 317.65559107 C-98.13925455 315.67245804 -97.82807004 313.68938294 -97.51647538 311.70637232 C-97.37165726 310.78034205 -97.22683915 309.85431177 -97.07763261 308.90021998 C-96.94079057 308.03832056 -96.80394852 307.17642115 -96.66295975 306.28840357 C-96.54384232 305.53406031 -96.42472489 304.77971705 -96.30199784 304.0025149 C-95.9304132 301.93661431 -95.45644227 299.92334622 -94.92272538 297.89387232 C-94.06034257 297.80412134 -93.19795975 297.71437037 -92.30944413 297.62189966 C-53.48250146 293.50653074 -15.97107908 286.43576586 20.85339767 273.04328638 C21.99075362 272.63304224 23.12810958 272.2227981 24.29993087 271.80012232 C25.29774581 271.43209498 26.29556075 271.06406763 27.32361251 270.68488795 C30.05966048 269.89893215 32.24883746 269.7363244 35.07727462 269.89387232 C35.89119111 263.06949559 33.50423373 259.8551863 29.38977462 254.58137232 C28.18627088 252.97879209 26.98315646 251.37591944 25.78039962 249.77277857 C25.16229415 248.96083033 24.54418868 248.14888209 23.90735275 247.31232935 C21.09138167 243.59101006 18.36514968 239.80677422 15.63977462 236.01887232 C15.10642501 235.28096461 14.5730754 234.54305689 14.02356368 233.78278834 C8.20580631 225.7212127 2.5190593 217.56874394 -3.16540116 209.41291529 C-5.46319269 206.11913743 -7.76827288 202.83049573 -10.07336015 199.54182154 C-15.70649004 191.50406378 -21.32034743 183.45309141 -26.92272538 175.39387232 C-34.23346126 164.87798462 -41.56447101 154.37656803 -48.92272538 143.89387232 C-49.47508866 143.1065774 -50.02745194 142.31928248 -50.5965535 141.50813013 C-52.2036613 139.21890279 -53.81279167 136.93111294 -55.42272538 134.64387232 C-56.12510331 133.64347925 -56.12510331 133.64347925 -56.84167069 132.62287623 C-57.29123124 131.98527369 -57.74079179 131.34767115 -58.20397538 130.69074732 C-58.6396785 130.05846216 -59.07538163 129.42617701 -59.52428788 128.7747317 C-60.90097345 126.84479005 -60.90097345 126.84479005 -62.63366288 125.09113795 C-65.22968266 122.22893641 -66.87809146 120.1565247 -67.01810807 116.19558436 C-66.85717416 114.67979037 -66.85717416 114.67979037 -66.69298905 113.13337427 C-66.57712449 111.9790893 -66.46125993 110.82480433 -66.34188432 109.63554102 C-66.13440064 107.78341501 -66.13440064 107.78341501 -65.92272538 105.89387232 C-65.79882432 104.64647272 -65.67492326 103.39907313 -65.54726762 102.11387354 C-64.73238104 94.07933517 -63.75438813 86.07083851 -62.67779607 78.06731039 C-62.13927598 74.04633734 -61.63970707 70.02826776 -61.22716874 65.99226099 C-58.52185646 39.88432416 -58.52185646 39.88432416 -52.57509965 33.29099756 C-47.3264605 29.28408663 -41.68442993 26.91124664 -35.45688981 24.83430201 C-24.84597571 20.89658648 -15.04646063 11.53865621 -6.82506913 3.96027857 C-2.37466135 -0.13107296 -2.37466135 -0.13107296 0 0 Z M6.07727462 75.89387232 C11.02157841 107.35738611 16.5271171 138.72352719 22.02513188 170.09383339 C23.2661982 177.17583022 24.50397042 184.25840174 25.74175304 191.34097308 C26.70753134 196.86636315 27.67412897 202.39160993 28.64084727 207.91683561 C28.97984755 209.85443514 29.31877738 211.792047 29.65770561 213.72965914 C32.75987046 231.45790179 35.90210066 249.17857375 39.07727462 266.89387232 C71.52702221 256.23490426 102.97766652 235.36884141 130.07727462 214.89387232 C130.7018254 214.42239771 131.32637618 213.9509231 131.96985275 213.46516138 C136.06847924 210.35029368 140.09322769 207.15374419 144.07727462 203.89387232 C144.75580489 203.34102564 145.43433517 202.78817896 146.13342696 202.21857935 C148.25286878 200.4796616 150.35486573 198.72177619 152.45227462 196.95637232 C153.11380538 196.41238795 153.77533614 195.86840357 154.45691329 195.30793482 C156.51202115 193.59664782 156.51202115 193.59664782 159.07727462 190.89387232 C159.07727462 189.57387232 159.07727462 188.25387232 159.07727462 186.89387232 C157.16703975 185.2298178 155.3692909 183.89774249 153.26477462 182.51887232 C151.96923365 181.63270553 150.67503318 180.74457677 149.38196212 179.85480982 C148.68425704 179.37882349 147.98655196 178.90283716 147.26770431 178.41242701 C143.41344628 175.74039347 139.65656835 172.93717706 135.88977462 170.14387232 C134.26227249 168.94191124 132.6346671 167.74008994 131.00696212 166.53840357 C129.36367192 165.32364239 127.72044251 164.10879895 126.07727462 162.89387232 C122.89070577 160.53844213 119.7033304 158.18411218 116.51477462 155.83137232 C115.73102462 155.25306666 114.94727462 154.67476099 114.13977462 154.07893091 C108.74792323 150.1073341 103.32629813 146.17902557 97.88977462 142.26887232 C91.57090633 137.72391355 85.32186629 133.09705959 79.1090129 128.40852076 C73.46145038 124.15718826 67.73841377 120.01629909 61.99914962 115.88996607 C56.49630343 111.92979812 51.02919072 107.92381624 45.57727462 103.89387232 C37.80484489 98.15059537 29.98731421 92.47301811 22.14368087 86.82746607 C19.60169963 84.99716829 17.06673026 83.15821011 14.54211837 81.30402857 C13.54309493 80.57055201 12.5440715 79.83707545 11.51477462 79.08137232 C10.66786056 78.45617701 9.8209465 77.8309817 8.94836837 77.18684107 C7.31922191 75.79912311 7.31922191 75.79912311 6.07727462 75.89387232 Z " fill="#2E1D5B" transform="translate(721.922725379467,721.106127679348)"/>
<path d="M0 0 C11.6219231 1.27579573 23.17349596 2.85826451 34.7253418 4.65942383 C37.35473089 5.06907952 39.98491536 5.47331554 42.61523438 5.87695312 C44.30213155 6.13770909 45.98898237 6.39876517 47.67578125 6.66015625 C48.45488358 6.77996353 49.2339859 6.89977081 50.03669739 7.02320862 C53.40360357 7.55027557 56.70319182 8.13977346 60 9 C60.12004395 10.01908447 60.24008789 11.03816895 60.36376953 12.08813477 C65.03628522 51.42777733 71.75542086 89.7494964 85.61279297 127.01171875 C85.92748535 127.86765625 86.24217773 128.72359375 86.56640625 129.60546875 C86.84427979 130.33918701 87.12215332 131.07290527 87.40844727 131.82885742 C88.08023547 134.2944837 88.10242932 136.45601295 88 139 C94.8244429 139.81392438 98.03858565 137.42690952 103.3125 133.3125 C104.91380021 132.11032763 106.51537021 130.90851456 108.1171875 129.70703125 C108.92897461 129.08908691 109.74076172 128.47114258 110.57714844 127.83447266 C114.32245678 124.99869607 118.12712096 122.24738874 121.9375 119.5 C122.67653564 118.96479736 123.41557129 118.42959473 124.17700195 117.87817383 C130.33845145 113.43257103 136.60153563 109.14601294 142.88769531 104.87939453 C148.38848772 101.1343901 153.8064901 97.28988471 159.1875 93.375 C165.34075674 88.89875518 171.54659786 84.51891705 177.82983398 80.22729492 C183.16223491 76.58362933 188.46144594 72.89449729 193.75 69.1875 C194.58740723 68.6006543 195.42481445 68.01380859 196.28759766 67.40917969 C198.85877415 65.60665481 201.42947358 63.80345178 204 62 C205.71869073 60.79418635 207.43744055 59.58845691 209.15625 58.3828125 C210.00026367 57.79032715 210.84427734 57.1978418 211.71386719 56.58740234 C213.39387855 55.41165315 215.07679425 54.24004219 216.76269531 53.07275391 C220.70525446 50.33975508 224.59211045 47.57130123 228.390625 44.640625 C229.08639648 44.12008545 229.78216797 43.5995459 230.49902344 43.06323242 C231.77712308 42.10465769 233.03795878 41.12231827 234.27441406 40.1105957 C238.01495299 37.35509308 240.5973705 36.78110438 245.22167969 37.26733398 C246.82100342 37.43053383 246.82100342 37.43053383 248.45263672 37.59703064 C249.6232666 37.73001053 250.79389648 37.86299042 252 38 C253.86035889 38.201343 253.86035889 38.201343 255.75830078 38.40675354 C263.96949912 39.31421611 272.15907059 40.37719916 280.34283066 41.50399017 C284.46503854 42.06981641 288.58659687 42.60511406 292.72119141 43.07275391 C319.50016184 46.13030054 319.50016184 46.13030054 325.20193481 50.80548096 C328.26543732 54.82872586 329.53473568 59.12704431 330.52825928 64.03015137 C331.19105781 66.79780045 332.49436202 68.87587073 334.08984375 71.2109375 C334.55946533 71.9124292 335.02908691 72.6139209 335.51293945 73.33666992 C335.98304443 74.00931885 336.45314941 74.68196777 336.9375 75.375 C337.44692139 76.12048096 337.95634277 76.86596191 338.48120117 77.6340332 C344.57204117 86.44145848 351.19134742 94.64329516 359 102 C357.49195548 105.53164785 355.4464524 107.80227832 352.7402401 110.50585556 C351.39141796 111.86065085 351.39141796 111.86065085 350.01534688 113.24281573 C349.01124594 114.24121064 348.00705269 115.2395127 347.0027771 116.23773193 C345.94054995 117.30083103 344.87876232 118.36436943 343.81737769 119.42830968 C340.8961774 122.35398966 337.96876456 125.27338405 335.0403204 128.19181085 C331.88470284 131.3388052 328.73485304 134.49156306 325.58430481 137.64363098 C320.12386486 143.10512049 314.65977002 148.56293124 309.19318771 154.0182724 C301.28939777 161.90582003 293.39112507 169.79887334 285.49419542 177.69328871 C272.68233 190.50077504 259.86600302 203.30378709 247.046875 216.10400391 C234.59303724 228.53948842 222.14129822 240.97706821 209.69238281 253.41748047 C208.9252504 254.18408744 208.15811798 254.95069441 207.36773913 255.74053189 C203.51933971 259.58632127 199.67098158 263.43215197 195.822644 267.27800322 C163.8881632 299.19174483 131.94644325 331.09823341 100 363 C99.505 361.515 99.505 361.515 99 360 C100.57629497 357.39234015 102.19614165 355.00697574 104 352.5625 C104.53383301 351.82257813 105.06766602 351.08265625 105.61767578 350.3203125 C110.56865238 343.49372934 115.63932447 336.75189043 120.74609375 330.04125977 C124.70481072 324.82086208 128.43075054 319.49418261 132 314 C131.23816406 313.26136719 130.47632813 312.52273438 129.69140625 311.76171875 C123.8434974 306.03752482 118.35295005 300.23554908 113.2578125 293.81640625 C111.28080116 291.35027273 109.24315347 288.95381513 107.16992188 286.56860352 C87.11397028 263.39243643 70.74864195 237.01913005 56.16894531 210.14111328 C55.08503638 208.15575794 53.97948493 206.18438622 52.8671875 204.21484375 C19.16680566 143.68692734 -1.1576272 69.15700765 0 0 Z M272.06225586 111.33837891 C271.23463745 111.48197625 270.40701904 111.6255736 269.55432129 111.77352238 C266.77421859 112.25629078 263.99453819 112.74144943 261.21484375 113.2265625 C259.24022602 113.56988433 257.26558043 113.91304598 255.29090881 114.25605774 C249.94975191 115.18423923 244.60894114 116.11439852 239.26818848 117.0449028 C230.34394298 118.59921503 221.41903892 120.14974549 212.49428177 121.70111656 C209.07089866 122.2962623 205.64755399 122.89162883 202.22421265 123.48701477 C187.42344987 126.06064076 172.62078793 128.62305886 157.81640625 131.17578125 C155.92862335 131.50139732 154.04084156 131.8270198 152.15306091 132.15264893 C144.17803991 133.52811013 136.20287937 134.90275028 128.2273016 136.27497959 C124.98978358 136.83229035 121.75245119 137.39067369 118.51516533 137.94933128 C117.03515394 138.20448392 115.55506111 138.45916468 114.07487679 138.71331215 C106.3613026 140.03784032 98.66285168 141.40383219 91 143 C102.35028637 168.78595595 114.77107854 193.87622614 131 217 C131.37688965 217.53995605 131.7537793 218.07991211 132.14208984 218.63623047 C141.46530968 231.96637135 151.39480075 244.66875893 162 257 C162.66902344 257.78246094 163.33804688 258.56492187 164.02734375 259.37109375 C165.34880436 260.91642534 166.67379668 262.45873668 168 264 C171.31600246 262.89466585 171.72377495 262.3751416 173.64453125 259.6328125 C174.14911865 258.9219751 174.65370605 258.2111377 175.17358398 257.47875977 C175.71442627 256.70201904 176.25526855 255.92527832 176.8125 255.125 C177.98604494 253.46938948 179.16055537 251.81446298 180.3359375 250.16015625 C180.94147461 249.30437988 181.54701172 248.44860352 182.17089844 247.56689453 C185.04670849 243.53108742 187.99017299 239.54622689 190.9375 235.5625 C192.11330206 233.97006745 193.2890832 232.37761945 194.46484375 230.78515625 C195.04862793 229.99512207 195.63241211 229.20508789 196.23388672 228.39111328 C199.15956103 224.43008838 202.07950306 220.46484283 205 216.5 C206.1666389 214.91664621 207.33330558 213.33331288 208.5 211.75 C209.36625 210.574375 209.36625 210.574375 210.25 209.375 C215.5 202.25 215.5 202.25 217.25024414 199.87475586 C218.41620806 198.29231815 219.58206104 196.70979869 220.74780273 195.12719727 C223.67431443 191.15448113 226.60277534 187.18323006 229.53515625 183.21484375 C235.22964599 175.50460543 240.89882943 167.77836411 246.5 160 C250.94433178 153.82814175 255.42297206 147.68321243 259.9375 141.5625 C260.50944092 140.78648437 261.08138184 140.01046875 261.6706543 139.2109375 C264.75695484 135.02729526 267.85391253 130.85186906 270.9609375 126.68359375 C271.60554932 125.81597412 272.25016113 124.94835449 272.91430664 124.05444336 C274.15498589 122.38483217 275.39883447 120.71757018 276.64624023 119.05297852 C277.48070679 117.9284729 277.48070679 117.9284729 278.33203125 116.78125 C278.82421143 116.12189453 279.3163916 115.46253906 279.82348633 114.78320312 C281.17765491 112.89786365 281.17765491 112.89786365 282 110 C278.64299008 110 275.36148709 110.76046355 272.06225586 111.33837891 Z " fill="#2E1D5B" transform="translate(121,618)"/>
<path d="M0 0 C3.1352992 1.26314346 4.42844684 3.19912041 6.32318115 5.93595886 C4.75374432 9.71897113 2.39216838 12.10852434 -0.49371338 14.97990417 C-0.98168396 15.46816681 -1.46965454 15.95642944 -1.97241211 16.45948792 C-3.5801216 18.06580848 -5.19478986 19.66493599 -6.80963135 21.26408386 C-7.92822119 22.37894203 -9.04636914 23.49424373 -10.16409302 24.60997009 C-13.10241209 27.54066495 -16.0466884 30.46530308 -18.99224854 33.38871765 C-21.99880147 36.37478611 -24.99967766 39.36654745 -28.0010376 42.35783386 C-33.88742571 48.22279342 -39.78011985 54.08136618 -45.67681885 59.93595886 C-48.99754412 58.35599273 -51.35711719 56.85706465 -53.67681885 53.93595886 C-53.43772338 49.82020489 -50.83332566 47.69318275 -48.05279541 44.87614441 C-47.57300232 44.38627548 -47.09320923 43.89640656 -46.59887695 43.39169312 C-45.01297435 41.77732851 -43.41602306 40.17448423 -41.81744385 38.57267761 C-40.70961471 37.45520875 -39.60201286 36.33751453 -38.49462891 35.21960449 C-36.17299474 32.8800152 -33.84524952 30.54670372 -31.51373291 28.21696472 C-28.52447523 25.22801244 -25.5564111 22.21893132 -22.59323502 19.2041502 C-20.31293667 16.89053487 -18.01917209 14.59064481 -15.72136688 12.29442787 C-14.62089863 11.19041505 -13.52530217 10.08152403 -12.43470001 8.9677639 C-10.90977457 7.41350932 -9.3670872 5.87934979 -7.81842041 4.34880066 C-6.94429504 3.47040024 -6.07016968 2.59199982 -5.16955566 1.6869812 C-2.67681885 -0.06404114 -2.67681885 -0.06404114 0 0 Z " fill="#2E1D5B" transform="translate(696.6768188476563,498.0640411376953)"/>
<path d="M0 0 C1.17825358 0.90172468 2.34231577 1.82201502 3.5 2.75 C4.47453125 3.51570312 4.47453125 3.51570312 5.46875 4.296875 C7 6 7 6 7 10 C5.38342285 12.10432434 5.38342285 12.10432434 3.08789062 14.38208008 C2.23279907 15.2400972 1.37770752 16.09811432 0.4967041 16.98213196 C-0.44064575 17.90197372 -1.37799561 18.82181549 -2.34375 19.76953125 C-3.31187746 20.73273072 -4.27919143 21.69674847 -5.24572754 22.6615448 C-7.27765635 24.68582612 -9.31586854 26.70347219 -11.359375 28.71606445 C-13.95878543 31.27619086 -16.54757898 33.84670405 -19.13228607 36.42166615 C-21.61597282 38.89528599 -24.10450541 41.36400621 -26.59375 43.83203125 C-27.51490601 44.74580032 -28.43606201 45.6595694 -29.38513184 46.60102844 C-34.44276111 51.58491557 -39.58380348 56.40699227 -45 61 C-48.32759923 59.44805246 -50.48580485 57.69378051 -53 55 C-51.42122567 51.1760508 -49.00498287 48.76357901 -46.09130859 45.86425781 C-45.59358444 45.36624161 -45.09586029 44.8682254 -44.58305359 44.3551178 C-42.9428793 42.71633267 -41.29574339 41.08473866 -39.6484375 39.453125 C-38.50742744 38.31584653 -37.36685923 37.1781246 -36.22671509 36.03997803 C-33.22921238 33.05010021 -30.22575149 30.06627809 -27.2210083 27.0836792 C-24.15413288 24.03728679 -21.09293306 20.98520297 -18.03125 17.93359375 C-12.02637217 11.95014566 -6.01518768 5.97308337 0 0 Z " fill="#2E1D5B" transform="translate(550,642)"/>
<path d="M0 0 C1.4835001 0.42257276 2.96176424 0.86356322 4.4375 1.3125 C5.26121094 1.55613281 6.08492187 1.79976562 6.93359375 2.05078125 C7.95646484 2.52064453 7.95646484 2.52064453 9 3 C10.15600339 6.46801016 9.87155408 6.97816818 8.51220703 10.21411133 C8.16078644 11.06383011 7.80936584 11.91354889 7.44729614 12.78901672 C7.05476654 13.71071152 6.66223694 14.63240631 6.2578125 15.58203125 C5.85601776 16.54662766 5.45422302 17.51122406 5.04025269 18.50505066 C3.74408779 21.61135319 2.43490064 24.71196808 1.125 27.8125 C0.28035804 29.82840255 -0.56340129 31.84467516 -1.40625 33.86132812 C-2.66685381 36.87655122 -3.92835953 39.89136913 -5.19378662 42.90457153 C-9.53335466 53.24077622 -13.77534204 63.61639246 -18 74 C-19.64846769 73.55123384 -21.29373455 73.09069512 -22.9375 72.625 C-24.31228516 72.24214844 -24.31228516 72.24214844 -25.71484375 71.8515625 C-28 71 -28 71 -29 69 C-28.4662323 67.16792297 -28.4662323 67.16792297 -27.52807617 64.9152832 C-27.00532608 63.64439095 -27.00532608 63.64439095 -26.47201538 62.3478241 C-26.08292999 61.42479996 -25.6938446 60.50177582 -25.29296875 59.55078125 C-24.89631012 58.59339554 -24.49965149 57.63600983 -24.0909729 56.64961243 C-22.79754056 53.53396264 -21.49280746 50.42319116 -20.1875 47.3125 C-19.30705899 45.19925458 -18.42709384 43.08581085 -17.54760742 40.97216797 C-11.83048552 27.25729422 -6.04210737 13.57532606 0 0 Z " fill="#2E1D5B" transform="translate(570,658)"/>
<path d="M0 0 C0.8515625 2.28515625 0.8515625 2.28515625 1.625 5.0625 C2.01558594 6.44115234 2.01558594 6.44115234 2.4140625 7.84765625 C2.60742188 8.55792969 2.80078125 9.26820313 3 10 C-3.1480423 12.54165959 -9.296351 15.08267402 -15.44482422 17.62329102 C-17.52561122 18.48317712 -19.60634262 19.34319778 -21.68701172 20.20336914 C-22.68619629 20.61643311 -23.68538086 21.02949707 -24.71484375 21.45507812 C-25.71698914 21.86940094 -26.71913452 22.28372375 -27.75164795 22.71060181 C-29.77847623 23.54754158 -31.8058626 24.38313107 -33.83380127 25.21737671 C-39.00821565 27.34617537 -44.17414733 29.49218612 -49.32714844 31.67236328 C-50.84252701 32.30761681 -50.84252701 32.30761681 -52.38851929 32.95570374 C-54.31346247 33.76273449 -56.23536334 34.57707138 -58.15371704 35.39964294 C-59.01097382 35.75704056 -59.86823059 36.11443817 -60.75146484 36.48266602 C-61.87770767 36.96002953 -61.87770767 36.96002953 -63.02670288 37.44703674 C-65 38 -65 38 -68 37 C-68.94921875 34.93359375 -68.94921875 34.93359375 -69.6875 32.4375 C-69.93886719 31.61121094 -70.19023438 30.78492188 -70.44921875 29.93359375 C-70.63097656 29.29550781 -70.81273437 28.65742187 -71 28 C-55.98899301 21.19225585 -40.82084423 14.77387744 -25.58215332 8.49530029 C-23.56485751 7.66337067 -21.54866392 6.82876343 -19.53356934 5.99151611 C-16.67270768 4.80411595 -13.80776621 3.62717927 -10.94140625 2.453125 C-9.6320385 1.90708115 -9.6320385 1.90708115 -8.29621887 1.3500061 C-7.49536362 1.02470917 -6.69450836 0.69941223 -5.86938477 0.36425781 C-5.16757584 0.07544739 -4.46576691 -0.21336304 -3.74269104 -0.51092529 C-2 -1 -2 -1 0 0 Z " fill="#2E1D5B" transform="translate(729,542)"/>
<path d="M0 0 C6.61591289 2.09399973 13.01303604 4.56410619 19.4140625 7.23828125 C20.38677094 7.64153122 21.35947937 8.04478119 22.36166382 8.46025085 C25.45066592 9.74141071 28.53791142 11.02673704 31.625 12.3125 C35.67910963 13.99748731 39.73393949 15.6807344 43.7890625 17.36328125 C44.75966614 17.76628448 45.73026978 18.16928772 46.73028564 18.58450317 C54.46095714 21.78929487 62.21704293 24.92436449 70 28 C67.8515625 35.71484375 67.8515625 35.71484375 67 38 C66.01 38.495 66.01 38.495 65 39 C62.36105761 38.08593044 59.8284346 37.10062261 57.2578125 36.01953125 C56.46987808 35.69511047 55.68194366 35.3706897 54.87013245 35.03643799 C52.28514557 33.9695212 49.70505673 32.89127837 47.125 31.8125 C45.35542354 31.07886568 43.58564711 30.34571353 41.81567383 29.61303711 C3.14375179 13.57187589 3.14375179 13.57187589 -4 10 C-3.52449439 8.51965236 -3.04448784 7.04074979 -2.5625 5.5625 C-2.29566406 4.73878906 -2.02882813 3.91507813 -1.75390625 3.06640625 C-1 1 -1 1 0 0 Z " fill="#2E1D5B" transform="translate(662,620)"/>
<path d="M0 0 C1.4765878 2.65785805 2.02526585 4.44852413 1.88574219 7.49389648 C1 10 1 10 -1.29980469 11.53930664 C-2.33008789 11.97106201 -3.36037109 12.40281738 -4.421875 12.84765625 C-5.60330078 13.35184082 -6.78472656 13.85602539 -8.00195312 14.37548828 C-9.33409224 14.91832707 -10.6667981 15.45977664 -12 16 C-13.42150025 16.58901465 -14.84271636 17.17871541 -16.26367188 17.76904297 C-20.91371041 19.68877604 -25.5809316 21.56463719 -30.25 23.4375 C-32.61756255 24.39041836 -34.98474318 25.34427641 -37.35168457 26.29873657 C-38.90997332 26.92654581 -40.46880581 27.55300726 -42.02819824 28.17807007 C-45.99741627 29.77229076 -49.95159226 31.39472682 -53.88867188 33.06689453 C-54.6715155 33.39722183 -55.45435913 33.72754913 -56.26092529 34.06788635 C-57.75464901 34.69993612 -59.24572141 35.33829885 -60.73370361 35.98374939 C-62.46559559 36.71435765 -64.23072477 37.36525327 -66 38 C-68 37 -68 37 -68.8515625 34.93359375 C-69.92578125 31.46679688 -69.92578125 31.46679688 -71 28 C-64.24690715 24.51355068 -57.41804336 21.40162481 -50.3828125 18.53125 C-49.40440399 18.12845825 -48.42599548 17.7256665 -47.41793823 17.31066895 C-44.32173398 16.0369029 -41.22344106 14.76831392 -38.125 13.5 C-35.04034158 12.2329745 -31.95611379 10.96490633 -28.87200928 9.6965332 C-26.89865825 8.88599866 -24.92459071 8.07720608 -22.94976807 7.27026367 C-18.94675401 5.6333956 -14.94889133 3.99291114 -10.98730469 2.2578125 C-9.91641602 1.79117188 -8.84552734 1.32453125 -7.7421875 0.84375 C-6.87190918 0.45380859 -6.00163086 0.06386719 -5.10498047 -0.33789062 C-3 -1 -3 -1 0 0 Z " fill="#2E1D5B" transform="translate(539,621)"/>
<path d="M0 0 C11.8145084 4.2997375 23.43803939 9.00100127 35.02929688 13.8684082 C37.88994271 15.06877014 40.75342664 16.2621699 43.6171875 17.45507812 C45.47152764 18.23135658 47.32570032 19.00803519 49.1796875 19.78515625 C50.01845428 20.13425552 50.85722107 20.4833548 51.72140503 20.84303284 C57.60825932 23.32324629 63.31740777 26.08330249 69 29 C68.25 35.625 68.25 35.625 66 39 C59.38408711 36.90600027 52.98696396 34.43589381 46.5859375 31.76171875 C45.61322906 31.35846878 44.64052063 30.95521881 43.63833618 30.53974915 C40.54933408 29.25858929 37.46208858 27.97326296 34.375 26.6875 C30.32089037 25.00251269 26.26606051 23.3192656 22.2109375 21.63671875 C21.24033386 21.23371552 20.26973022 20.83071228 19.26971436 20.41549683 C11.53904286 17.21070513 3.78295707 14.07563551 -4 11 C-1.125 2.25 -1.125 2.25 0 0 Z " fill="#2E1D5B" transform="translate(472,541)"/>
<path d="M0 0 C0.4218457 1.02955811 0.84369141 2.05911621 1.27832031 3.11987305 C2.90327656 7.08538258 4.52898169 11.05058483 6.15478516 15.01574707 C7.24821573 17.68314732 8.34091255 20.35084739 9.43359375 23.01855469 C12.84254754 31.33659465 16.26137347 39.64987598 19.734375 47.94140625 C20.29527756 49.28359742 20.85615094 50.62580079 21.41699219 51.96801758 C22.45362157 54.44821862 23.49696898 56.92523262 24.54394531 59.40112305 C25.00381836 60.50109619 25.46369141 61.60106934 25.9375 62.734375 C26.33839844 63.68538086 26.73929688 64.63638672 27.15234375 65.61621094 C28 68 28 68 28 71 C23.89937011 72.62117926 21.22458987 73.49083398 17 72 C15.56884766 69.90332031 15.56884766 69.90332031 14.4140625 67.078125 C13.74068848 65.47130859 13.74068848 65.47130859 13.05371094 63.83203125 C12.34649902 62.05892578 12.34649902 62.05892578 11.625 60.25 C11.12258789 59.03183594 10.62017578 57.81367187 10.10253906 56.55859375 C8.9926403 53.86590062 7.89600434 51.16825433 6.80761719 48.46679688 C5.20661123 44.49803747 3.57474127 40.54260246 1.93600464 36.58929443 C0.5422873 33.22484277 -0.8436228 29.8572162 -2.22735596 26.48864746 C-2.90815949 24.83188331 -3.59040691 23.17571174 -4.27410889 21.5201416 C-5.23692667 19.18300228 -6.19010966 16.84216508 -7.140625 14.5 C-7.43065399 13.80009949 -7.72068298 13.10019897 -8.01950073 12.37908936 C-9.39064466 8.97212583 -10 6.73632006 -10 3 C-8.70990357 2.49596232 -7.41786211 1.99690074 -6.125 1.5 C-5.04605469 1.08234375 -5.04605469 1.08234375 -3.9453125 0.65625 C-2 0 -2 0 0 0 Z " fill="#2E1D5B" transform="translate(552,468)"/>
<path d="M0 0 C7.06153734 15.46670336 13.7476908 31.05239822 20.125 46.8125 C20.45396271 47.62399506 20.78292542 48.43549011 21.12185669 49.27157593 C22.06580967 51.60310997 23.00642095 53.93595491 23.9453125 56.26953125 C24.2250441 56.96229156 24.5047757 57.65505188 24.79298401 58.36880493 C26.32977146 62.2077147 27.73449595 66.06334302 29 70 C25.7 71.32 22.4 72.64 19 74 C15.53273444 67.22937874 12.4039929 60.4238475 9.53125 53.3828125 C9.12845825 52.40440399 8.7256665 51.42599548 8.31066895 50.41793823 C7.0369029 47.32173398 5.76831392 44.22344106 4.5 41.125 C3.2329745 38.04034158 1.96490633 34.95611379 0.6965332 31.87200928 C-0.11400134 29.89865825 -0.92279392 27.92459071 -1.72973633 25.94976807 C-3.3666044 21.94675401 -5.00708886 17.94889133 -6.7421875 13.98730469 C-7.20882812 12.91641602 -7.67546875 11.84552734 -8.15625 10.7421875 C-8.54619141 9.87190918 -8.93613281 9.00163086 -9.33789062 8.10498047 C-10 6 -10 6 -9 3 C-2.88888889 0 -2.88888889 0 0 0 Z " fill="#2E1D5B" transform="translate(630,658)"/>
<path d="M0 0 C3.3 1.32 6.6 2.64 10 4 C5.41992061 16.63183317 0.34346175 29.0422832 -4.83276367 41.44018555 C-6.20015385 44.71783138 -7.56023615 47.99844862 -8.91992188 51.27929688 C-9.79383486 53.37778578 -10.66816833 55.47609964 -11.54296875 57.57421875 C-11.94613815 58.54816086 -12.34930756 59.52210297 -12.76469421 60.52555847 C-14.58868037 64.87918617 -16.38663578 69.04521676 -19 73 C-25.625 72.25 -25.625 72.25 -29 70 C-27.02666711 63.81421812 -24.77776112 57.80759661 -22.26953125 51.8203125 C-21.91541672 50.96807098 -21.56130219 50.11582947 -21.19645691 49.23776245 C-20.07141448 46.53227205 -18.94200286 43.82863079 -17.8125 41.125 C-17.07458957 39.35167908 -16.33695744 37.57824232 -15.59960938 35.8046875 C-13.7742224 31.41707676 -11.94231827 27.03222659 -10.10748291 22.64855957 C-8.96930985 19.92660412 -7.83494009 17.2030817 -6.70068359 14.47949219 C-5.97118735 12.73365764 -5.24153848 10.98788685 -4.51171875 9.2421875 C-4.17259964 8.42597931 -3.83348053 7.60977112 -3.48408508 6.76882935 C-1.11389104 1.11389104 -1.11389104 1.11389104 0 0 Z " fill="#2E1D5B" transform="translate(649,468)"/>
<path d="M0 0 C6.36508567 5.24820057 12.15322975 11.02471452 17.96484375 16.8671875 C19.00837079 17.91258325 20.05212152 18.95775575 21.09608459 20.00271606 C23.82230745 22.7327284 26.54551181 25.46573193 29.26806641 28.19940186 C32.05512459 30.99675154 34.84507146 33.79121701 37.63476562 36.5859375 C43.09265081 42.05449694 48.54734559 47.52622445 54 53 C52.31847927 56.74020498 50.30960527 58.56134348 47 61 C40.75116581 55.8189089 34.98444182 50.2003557 29.21875 44.4921875 C28.71642349 43.99518467 28.21409698 43.49818184 27.69654846 42.98611832 C25.04908975 40.36517644 22.40517057 37.7407172 19.76367188 35.11376953 C17.58041682 32.9439509 15.3900795 30.78167254 13.19335938 28.62548828 C10.52881124 26.01007849 7.87658076 23.38277161 5.23292542 20.74625015 C4.22598789 19.74603769 3.2147906 18.75009489 2.19932556 17.75854111 C0.78731288 16.37796 -0.60778085 14.98013786 -2.00195312 13.58154297 C-3.19939148 12.39623489 -3.19939148 12.39623489 -4.42102051 11.1869812 C-6 9 -6 9 -5.91003418 6.88552856 C-4.5223904 4.01042558 -2.3224834 2.14383083 0 0 Z " fill="#2E1D5B" transform="translate(649,642)"/>
<path d="M0 0 C3.8239492 1.57877433 6.23642099 3.99501713 9.13574219 6.90869141 C9.63375839 7.40641556 10.1317746 7.90413971 10.6448822 8.41694641 C12.28366733 10.0571207 13.91526134 11.70425661 15.546875 13.3515625 C16.68415347 14.49257256 17.8218754 15.63314077 18.96002197 16.77328491 C21.94989979 19.77078762 24.93372191 22.77424851 27.9163208 25.7789917 C30.96271321 28.84586712 34.01479703 31.90706694 37.06640625 34.96875 C43.04985434 40.97362783 49.02691663 46.98481232 55 53 C54.07347299 54.17539996 53.13336613 55.34010577 52.1875 56.5 C51.66542969 57.1496875 51.14335938 57.799375 50.60546875 58.46875 C49 60 49 60 46 60 C43.66511536 58.02587891 43.66511536 58.02587891 40.88598633 55.2265625 C40.1245507 54.465784 40.1245507 54.465784 39.34773254 53.68963623 C37.66862555 52.00843622 36.00039815 50.31685314 34.33203125 48.625 C33.17112069 47.45849532 32.00954679 46.29265046 30.84733582 45.12744141 C27.78781461 42.05645698 24.73740817 38.97657047 21.68878174 35.89477539 C18.57724894 32.75257363 15.45722333 29.61883036 12.33789062 26.484375 C6.21689262 20.33118678 0.10549313 14.16857301 -6 8 C-2.25 2.25 -2.25 2.25 0 0 Z " fill="#2E1D5B" transform="translate(503,497)"/>
<path d="M0 0 C3.3 0 6.6 0 10 0 C10 25.08 10 50.16 10 76 C6.7 76 3.4 76 0 76 C0 50.92 0 25.84 0 0 Z " fill="#2E1D5B" transform="translate(595,665)"/>
<path d="M0 0 C25.08 0 50.16 0 76 0 C76 3.3 76 6.6 76 10 C50.92 10 25.84 10 0 10 C0 6.7 0 3.4 0 0 Z " fill="#2E1D5B" transform="translate(665,595)"/>
<path d="M0 0 C25.08 0 50.16 0 76 0 C76 3.3 76 6.6 76 10 C50.92 10 25.84 10 0 10 C0 6.7 0 3.4 0 0 Z " fill="#2E1D5B" transform="translate(459,595)"/>
<path d="M0 0 C3.3 0 6.6 0 10 0 C10 25.08 10 50.16 10 76 C6.7 76 3.4 76 0 76 C0 50.92 0 25.84 0 0 Z " fill="#2E1D5B" transform="translate(595,459)"/>
</svg>
