<svg width="537" height="222" viewBox="0 0 537 222" fill="none" xmlns="http://www.w3.org/2000/svg">
<g clip-path="url(#clip0_5341_10920)">
<path d="M24.1556 80.8527H0L16.2954 78.3558C16.9196 61.9537 23.6628 47.1121 34.2992 36.0568L37.7981 40.8206L39.0876 42.5783C30.6113 51.8101 25.1659 63.851 24.2952 77.132L48.7712 73.3785L28.6073 59.2186L54.6437 63.7771L59.9578 71.0131C58.4958 74.1177 57.7648 77.4852 57.7648 80.8527H24.1556ZM97.181 64.5163C99.3082 66.6435 100.934 69.0911 102.06 71.6948L112.934 73.3621L133.098 59.2022L107.062 63.7606L122.626 42.5536C131.102 51.7937 136.556 63.8428 137.418 77.1156L145.402 78.3394C144.778 61.9372 138.043 47.0956 127.398 36.0404L132.228 29.4533L97.1727 64.508L97.181 64.5163ZM38.0445 38.0363L40.7877 40.7877L64.5163 64.5163C66.6517 62.389 69.0911 60.7627 71.6948 59.6457L73.3621 48.7712L59.2022 28.6073L63.7606 54.6437L42.5618 39.0876C51.8019 30.6113 63.8345 25.1494 77.1156 24.2788L78.3394 16.2954C61.9372 16.9196 47.1039 23.6628 36.0486 34.3074L29.4615 29.4779L38.0363 38.0445L38.0445 38.0363ZM97.9284 54.6437L102.487 28.6073L88.3269 48.7712L84.5734 24.2952C97.8462 25.1576 109.895 30.6031 119.135 39.0794L120.885 37.7981L125.649 34.2992C114.593 23.6546 99.7517 16.9196 83.3496 16.2954L80.8527 0V57.7566C84.2202 57.7566 87.5959 58.4876 90.7006 59.9578L97.9366 54.6437H97.9284ZM64.5245 97.181C62.389 95.0537 60.771 92.6061 59.6457 90.0024L48.7712 88.3351L28.6073 102.495L54.6437 97.9366L39.0794 119.144C30.6031 109.904 25.1494 97.8627 24.2788 84.5816L16.2954 83.3496C16.9196 99.76 23.6628 114.593 34.2992 125.657L29.4697 132.236L64.5245 97.181ZM103.941 80.8527C103.941 84.2202 103.21 87.5877 101.739 90.7006L107.053 97.9366L133.09 102.495L112.926 88.3351L137.402 84.5816C136.531 97.8627 131.086 109.904 122.618 119.144L123.899 120.901L127.398 125.665C138.043 114.61 144.778 99.7682 145.402 83.3578L161.697 80.8609H103.941V80.8527ZM97.181 97.181C95.0537 99.3082 92.6061 100.934 90.0024 102.06L88.3351 112.926L102.495 133.09L97.9366 107.062L119.144 122.626C109.912 131.102 97.8627 136.556 84.5816 137.418L83.3578 145.402C99.76 144.778 114.602 138.043 125.657 127.398L132.236 132.228L97.181 97.1727V97.181ZM63.7688 107.062L59.2104 133.09L73.3703 112.926L77.132 137.402C63.851 136.531 51.8101 131.086 42.5701 122.618L40.8206 123.899L36.0568 127.398C47.1121 138.043 61.9455 144.778 78.3558 145.402L80.8527 161.697V103.941C77.4852 103.941 74.1177 103.201 71.0131 101.739L63.7771 107.053L63.7688 107.062Z" fill="white"/>
<path d="M81.4769 89.7148H80.2202V99.7188H81.4769V89.7148Z" fill="white"/>
<path d="M76.8775 88.7974L73.0508 98.0405L74.2119 98.5212L78.0386 89.2781L76.8775 88.7974Z" fill="white"/>
<path d="M74.134 86.6664L67.0602 93.7402L67.9488 94.6288L75.0226 87.555L74.134 86.6664Z" fill="white"/>
<path d="M72.4246 83.6557L63.1815 87.4824L63.6622 88.6435L72.9053 84.8168L72.4246 83.6557Z" fill="white"/>
<path d="M71.9904 80.2202H61.9865V81.4769H71.9904V80.2202Z" fill="white"/>
<path d="M63.6593 73.0606L63.1786 74.2217L72.4217 78.0484L72.9024 76.8873L63.6593 73.0606Z" fill="white"/>
<path d="M67.9499 67.0675L67.0613 67.9561L74.1351 75.0299L75.0237 74.1413L67.9499 67.0675Z" fill="white"/>
<path d="M74.2125 63.1756L73.0514 63.6562L76.8781 72.8993L78.0392 72.4186L74.2125 63.1756Z" fill="white"/>
<path d="M81.4769 61.9863H80.2202V71.9902H81.4769V61.9863Z" fill="white"/>
<path d="M87.4891 63.192L83.6624 72.4351L84.8234 72.9158L88.6502 63.6727L87.4891 63.192Z" fill="white"/>
<path d="M93.7395 67.0629L86.6656 74.1367L87.5542 75.0253L94.6281 67.9515L93.7395 67.0629Z" fill="white"/>
<path d="M98.0386 73.0458L88.7955 76.8726L89.2762 78.0336L98.5193 74.2069L98.0386 73.0458Z" fill="white"/>
<path d="M99.7107 80.2202H89.7068V81.4769H99.7107V80.2202Z" fill="white"/>
<path d="M89.2837 83.6675L88.803 84.8286L98.0461 88.6553L98.5268 87.4943L89.2837 83.6675Z" fill="white"/>
<path d="M87.5531 86.6729L86.6646 87.5615L93.7384 94.6354L94.627 93.7468L87.5531 86.6729Z" fill="white"/>
<path d="M84.8228 88.7898L83.6617 89.2705L87.4885 98.5136L88.6495 98.0329L84.8228 88.7898Z" fill="white"/>
</g>
<g clip-path="url(#clip1_5341_10920)">
<path d="M200.727 72.5075C210.829 72.5075 215.141 68.294 215.141 58.4133V29.3789H208.456V58.1422C208.456 64.1955 206.361 66.446 200.735 66.446C195.109 66.446 192.957 64.1955 192.957 58.1422V29.3789H186.263V58.4051C186.263 68.2858 190.592 72.4993 200.727 72.4993" fill="white"/>
<path d="M242.87 71.8668H249.687V29.3789H243.264V52.3846L243.42 59.1361L227.1 29.3789H220.283V71.8668H226.706V48.8611L226.55 42.1179L242.87 71.8668Z" fill="white"/>
<path d="M261.465 29.3789H254.779V71.8668H261.465V29.3789Z" fill="white"/>
<path d="M285.473 72.1871L297.185 29.3789H290.031L281.21 63.0785L272.463 29.8224L272.348 29.3789H265.194L276.898 72.1871H285.473Z" fill="white"/>
<path d="M325.669 65.8218H307.345V53.2306H323.016V47.1773H307.345V35.4322H325.669V29.3789H300.651V71.8668H325.669V65.8218Z" fill="white"/>
<path d="M351.459 71.875H358.72L350.162 54.5612C354.613 52.7214 356.864 48.8693 356.864 43.1035V42.044C356.864 33.7566 352.083 29.3789 343.032 29.3789H330.211V71.8668H336.905V55.7686H343.64L351.459 71.8668V71.875ZM350.071 42.2575V42.9474C350.071 48.59 346.334 49.7728 343.197 49.7728H336.905V35.4322H343.197C346.334 35.4322 350.071 36.6149 350.071 42.2575Z" fill="white"/>
<path d="M374.325 72.5076C383.451 72.5076 388.896 67.8095 388.896 59.9493V59.3661C388.896 52.319 384.715 48.6066 375.352 47.3417C368.371 46.389 366.966 44.1467 366.966 40.8285V40.4014C366.966 37.0503 369.792 34.7916 374.005 34.7916H374.375C379.631 34.7916 381.783 37.5185 381.783 44.2124V44.8038H388.469V42.9476C388.469 33.3872 383.845 28.7466 374.317 28.7466C365.554 28.7466 360.116 33.3789 360.116 40.8285V41.4116C360.116 48.0891 364.436 51.9166 373.34 53.1157C380.559 54.0767 382.046 56.475 382.046 59.785V60.2039C382.046 64.056 379.171 66.4461 374.539 66.4461H374.112C369.061 66.4461 366.391 63.3743 366.391 57.5592V56.9678H359.706V58.0848C359.706 67.5138 364.765 72.4994 374.334 72.4994" fill="white"/>
<path d="M399.877 29.3789H393.183V71.8668H399.877V29.3789Z" fill="white"/>
<path d="M413.84 71.8668H420.534V35.4322H430.702V29.3789H403.672V35.4322H413.84V71.8668Z" fill="white"/>
<path d="M445.683 71.8668H452.377V58.8486L464.796 29.3789H457.527L449.026 50.3313L440.534 29.3789H433.257L445.683 58.8486V71.8668Z" fill="white"/>
<path d="M492.122 72.5076C502.569 72.5076 507.432 65.8958 507.432 51.6866V49.5676C507.44 35.3584 502.569 28.7466 492.122 28.7466C481.674 28.7466 476.755 35.3584 476.755 49.5676V51.6866C476.755 65.8958 481.642 72.5076 492.122 72.5076ZM500.59 51.6866C500.59 62.0355 498.109 66.4543 492.286 66.4543H491.917C486.093 66.4543 483.613 62.0355 483.613 51.6866V49.5676C483.613 39.2187 486.093 34.7999 491.917 34.7999H492.286C498.109 34.7999 500.59 39.2187 500.59 49.5676V51.6866Z" fill="white"/>
<path d="M511.67 29.3789V71.8668H518.356V53.2306H533.452V47.1773H518.356V35.4322H536.097V29.3789H511.67Z" fill="white"/>
<path d="M205.228 79.3823C192.136 79.3823 185.623 86.9715 185.623 105.098V107.784C185.623 125.911 192.136 133.5 205.893 133.5C214.755 133.5 219.922 130.544 223.486 127.39V104.589H206.903V112.376H214.484V123.028C212.743 124.441 209.926 125.648 206.23 125.648H205.622C197.368 125.648 194.813 119.603 194.813 107.792V105.107C194.813 93.2958 197.433 87.2508 205.154 87.2508H205.762C212.341 87.2508 214.484 91.6203 214.484 99.423H223.478V97.6571C223.478 84.9017 217.236 79.3987 205.22 79.3987" fill="white"/>
<path d="M245.383 80.2529H229.006V132.613H237.999V113.082H245.654L254.615 132.613H264.348L254.377 111.669C259.141 109.788 262.902 105.698 262.902 97.304V95.957C262.902 82.6677 253.572 80.2529 245.383 80.2529ZM253.769 97.0329C253.769 103.949 249.202 105.222 245.712 105.222H237.991V88.1049H245.712C249.202 88.1049 253.769 89.378 253.769 96.2937V97.0329Z" fill="white"/>
<path d="M267.683 132.613H298.828V124.761H276.676V109.788H295.477V102.002H276.676V88.1049H298.828V80.2529H267.683V132.613Z" fill="white"/>
<path d="M304.027 132.613H335.172V124.761H313.021V109.788H331.821V102.002H313.021V88.1049H335.172V80.2529H304.027V132.613Z" fill="white"/>
<path d="M368.215 105.296L368.486 116.367L349.151 80.2529H339.616V132.613H348.141V107.579L347.878 96.499L367.213 132.613H376.74V80.2529H368.215V105.296Z" fill="white"/>
<path d="M424.542 120.802L416.288 80.2529H404.945L396.756 120.802L390.777 80.2529H381.381L390.374 132.884H401.988L410.645 90.454L419.236 132.884H430.924L439.918 80.2529H430.521L424.542 120.802Z" fill="white"/>
<path d="M453.889 80.2529H444.895V132.613H453.889V80.2529Z" fill="white"/>
<path d="M477.683 79.3823C464.591 79.3823 458.546 86.9715 458.546 105.098V107.784C458.546 125.911 464.591 133.5 477.683 133.5C489.699 133.5 495.744 127.997 495.744 115.644V114.971H486.685C486.685 121.55 484.336 125.648 478.225 125.648H477.625C470.102 125.648 467.753 119.603 467.753 107.792V105.107C467.753 93.2958 470.168 87.2508 477.625 87.2508H478.225C484.607 87.2508 486.685 91.6203 486.685 99.9405H495.744V97.6571C495.744 84.9017 489.699 79.3987 477.683 79.3987" fill="white"/>
<path d="M527.103 102.002H509.313V80.2529H500.319V132.613H509.313V109.788H527.103V132.613H536.097V80.2529H527.103V102.002Z" fill="white"/>
</g>
<g clip-path="url(#clip2_5341_10920)">
<path d="M462.505 199.996C461.437 200.579 459.983 200.867 458.151 200.867C456.188 200.867 454.669 200.3 453.593 199.167C452.509 198.05 451.967 196.497 451.967 194.518C451.967 192.539 452.468 191.027 453.47 189.894C454.521 188.695 455.983 188.103 457.864 188.103C458.611 188.103 459.301 188.202 459.909 188.399V181.795H462.496V199.996H462.505ZM459.917 190.313C459.482 190.132 458.874 190.042 458.11 190.042C456.985 190.042 456.098 190.461 455.449 191.307C454.85 192.103 454.554 193.179 454.554 194.526C454.554 195.873 454.858 196.957 455.474 197.721C456.09 198.485 456.961 198.871 458.11 198.871C458.907 198.871 459.515 198.764 459.917 198.551V190.313Z" fill="white"/>
<path d="M474.89 199.996C473.699 200.579 472.09 200.875 470.069 200.875C466.652 200.875 464.944 199.38 464.944 196.39V188.152H467.506V196.431C467.506 198.008 468.361 198.789 470.069 198.789C471.038 198.789 471.794 198.674 472.328 198.444V188.152H474.89V199.996Z" fill="white"/>
<path d="M485.683 200.037C484.82 200.596 483.736 200.875 482.438 200.875C480.886 200.875 479.613 200.366 478.611 199.355C477.453 198.189 476.87 196.571 476.87 194.501C476.87 192.432 477.453 190.822 478.611 189.672C479.613 188.662 480.894 188.152 482.438 188.152C483.744 188.152 484.82 188.432 485.683 188.99L484.837 190.781C484.27 190.386 483.58 190.189 482.767 190.189C481.847 190.189 481.091 190.526 480.508 191.208C479.851 191.98 479.523 193.064 479.523 194.477C479.523 195.889 479.859 196.974 480.533 197.737C481.132 198.436 481.872 198.78 482.767 198.78C483.58 198.78 484.27 198.583 484.837 198.189L485.683 200.029V200.037Z" fill="white"/>
<path d="M496.828 200.013C495.711 200.588 494.2 200.875 492.27 200.875C488.623 200.875 486.792 199.602 486.792 197.048C486.792 195.503 487.572 194.403 489.141 193.738C490.282 193.253 492.032 192.949 494.389 192.834V192.062C494.389 190.674 493.494 189.976 491.711 189.976C490.471 189.976 489.305 190.23 488.204 190.723L487.547 189.023C488.894 188.448 490.373 188.161 491.966 188.161C495.21 188.161 496.828 189.549 496.828 192.308V200.021V200.013ZM494.381 194.477C492.689 194.567 491.506 194.74 490.833 194.978C489.748 195.356 489.214 196.029 489.214 196.99C489.214 198.378 490.208 199.076 492.204 199.076C493.19 199.076 493.921 198.969 494.389 198.756V194.469L494.381 194.477Z" fill="white"/>
<path d="M505.058 200.588C504.648 200.777 504.122 200.867 503.457 200.867C501.14 200.867 499.974 199.627 499.974 197.155V189.96H498.258V188.144H499.974V184.687L502.487 183.915V188.144H505.05V189.96H502.487V197.015C502.487 198.083 503.054 198.617 504.179 198.617C504.508 198.617 504.804 198.559 505.05 198.452V200.596L505.058 200.588Z" fill="white"/>
<path d="M298.622 200.588C298.212 200.777 297.678 200.867 297.021 200.867C294.705 200.867 293.538 199.627 293.538 197.155V189.96H291.822V188.144H293.538V184.687L296.052 183.915V188.144H298.614V189.96H296.052V197.015C296.052 198.083 296.618 198.617 297.744 198.617C298.072 198.617 298.36 198.559 298.614 198.452V200.596L298.622 200.588Z" fill="white"/>
<path d="M509.247 185.467C508.943 185.746 508.59 185.894 508.163 185.894C507.736 185.894 507.383 185.754 507.079 185.467C506.783 185.187 506.627 184.842 506.627 184.432C506.627 184.021 506.775 183.676 507.079 183.397C507.374 183.109 507.736 182.978 508.163 182.978C508.59 182.978 508.943 183.118 509.247 183.397C509.543 183.676 509.691 184.029 509.691 184.432C509.691 184.834 509.543 185.187 509.247 185.467Z" fill="white"/>
<path d="M509.452 188.144H506.865V200.875H509.452V188.144Z" fill="white"/>
<path d="M521.214 199.035C520.212 200.259 518.832 200.875 517.074 200.875C515.317 200.875 513.937 200.267 512.935 199.035C511.974 197.885 511.497 196.374 511.497 194.501C511.497 192.629 511.974 191.117 512.935 189.968C513.937 188.76 515.317 188.152 517.074 188.152C518.832 188.152 520.212 188.76 521.214 189.968C522.175 191.117 522.651 192.629 522.651 194.501C522.651 196.374 522.175 197.885 521.214 199.035ZM519.308 191.306C518.791 190.518 518.043 190.124 517.074 190.124C516.105 190.124 515.358 190.518 514.84 191.306C514.339 192.078 514.085 193.138 514.085 194.477C514.085 195.815 514.331 196.883 514.84 197.655C515.358 198.452 516.097 198.854 517.074 198.854C518.052 198.854 518.791 198.452 519.308 197.655C519.809 196.883 520.056 195.824 520.056 194.477C520.056 193.13 519.809 192.07 519.308 191.306Z" fill="white"/>
<path d="M532.17 200.875V192.547C532.17 190.97 531.283 190.189 529.518 190.189C528.581 190.189 527.801 190.312 527.185 190.559V200.875H524.622V189.031C526.076 188.448 527.702 188.152 529.485 188.152C532.992 188.152 534.749 189.54 534.749 192.317V200.875H532.162H532.17Z" fill="white"/>
<path d="M421.134 207.413C421.134 205.261 422.891 203.503 425.051 203.503C427.211 203.503 428.961 205.261 428.961 207.413C428.961 209.565 427.211 211.331 425.051 211.331C422.891 211.331 421.134 209.573 421.134 207.413ZM428.008 207.413C428.008 205.581 426.686 204.259 425.043 204.259C423.4 204.259 422.086 205.581 422.086 207.413C422.086 209.245 423.409 210.567 425.043 210.567C426.678 210.567 428.008 209.245 428.008 207.413ZM423.54 205.179H425.191C426.25 205.179 426.825 205.549 426.825 206.485C426.825 207.249 426.39 207.61 425.667 207.676L426.858 209.606H426.012L424.871 207.7H424.37V209.606H423.54V205.179ZM424.37 207.084H425.101C425.585 207.084 426.004 207.019 426.004 206.427C426.004 205.902 425.528 205.82 425.109 205.82H424.37V207.093V207.084Z" fill="white"/>
<path d="M361.537 169.097L353.702 203.01C351.911 207.914 347.213 211.413 341.694 211.413H323.222L330.844 178.518C330.877 178.403 330.918 178.28 330.95 178.165C332.692 172.9 337.644 169.097 343.492 169.097H361.529H361.537ZM353.143 182.838C354.153 182.009 354.786 180.957 355.065 179.783L355.114 179.561H338.77C337.579 179.561 336.462 179.98 335.443 180.818C334.425 181.655 333.768 182.682 333.579 183.503L329.768 200.727H329.981C331.172 200.727 332.289 200.308 333.3 199.47C334.318 198.641 334.967 197.614 335.221 196.431L336.199 192.054H344.388C345.57 192.054 346.696 191.627 347.722 190.797C348.749 189.959 349.398 188.933 349.652 187.742L349.702 187.528H337.209L337.973 184.078H349.808C350.991 184.078 352.116 183.66 353.127 182.83" fill="white"/>
<path d="M426.374 169.097L418.916 201.392C417.495 207.15 412.296 211.421 406.095 211.421H388.058L395.557 178.929C395.557 178.929 395.894 177.877 395.984 177.623C397.873 172.645 402.686 169.105 408.329 169.105H426.365L426.374 169.097ZM419.754 183.98C419.811 183.676 419.844 183.364 419.844 183.052C419.844 182.066 419.515 181.237 418.858 180.588C418.201 179.931 417.347 179.594 416.304 179.594H399.976L399.943 179.742C399.877 180.062 399.853 180.358 399.853 180.645C399.853 181.639 400.189 182.477 400.846 183.142C401.503 183.799 402.366 184.128 403.401 184.128H406.933L403.393 200.735H403.614C404.797 200.735 405.914 200.316 406.924 199.487C407.935 198.657 408.567 197.631 408.813 196.448L411.433 184.128H419.737L419.77 183.98H419.754Z" fill="white"/>
<path d="M384.05 212.029C382.605 217.762 377.422 222.008 371.245 222.008H353.217C353.217 222.008 365.537 168.539 365.66 168.12C367.229 162.584 372.321 158.527 378.366 158.527H396.42L384.067 212.037L384.05 212.029ZM380.428 192.087C381.611 192.087 382.728 191.668 383.738 190.838C384.748 190.017 385.389 188.982 385.66 187.775L386.498 183.947C386.555 183.652 386.588 183.331 386.588 183.019C386.588 182.042 386.251 181.212 385.586 180.555C384.921 179.898 384.058 179.561 383.023 179.561H371.985L367.451 179.553L362.95 200.736H363.172C364.354 200.736 365.471 200.317 366.482 199.479C367.492 198.649 368.133 197.623 368.371 196.44L369.291 192.087H380.436M370.243 187.561H381.184L381.939 184.095H371.007L370.243 187.561Z" fill="white"/>
<path d="M197.704 200.875L196.201 196.382H189.902L188.399 200.875H185.623L191.503 183.849H194.608L200.489 200.875H197.713H197.704ZM193.573 188.054C193.368 187.43 193.204 186.756 193.08 186.033H193.031C192.908 186.756 192.744 187.43 192.538 188.054L190.444 194.403H195.659L193.565 188.054H193.573Z" fill="white"/>
<path d="M204.579 181.795H201.992V200.867H204.579V181.795Z" fill="white"/>
<path d="M209.918 181.795H207.331V200.867H209.918V181.795Z" fill="white"/>
<path d="M214.805 185.467C214.509 185.746 214.148 185.894 213.721 185.894C213.293 185.894 212.94 185.754 212.636 185.467C212.341 185.187 212.193 184.842 212.193 184.432C212.193 184.021 212.341 183.676 212.636 183.397C212.932 183.109 213.293 182.978 213.721 182.978C214.148 182.978 214.509 183.118 214.805 183.397C215.1 183.676 215.248 184.029 215.248 184.432C215.248 184.834 215.1 185.187 214.805 185.467Z" fill="white"/>
<path d="M215.018 188.144H212.431V200.875H215.018V188.144Z" fill="white"/>
<path d="M226.862 200.012C225.745 200.587 224.225 200.875 222.304 200.875C218.649 200.875 216.825 199.594 216.825 197.039C216.825 195.495 217.605 194.395 219.174 193.729C220.316 193.245 222.065 192.941 224.414 192.826V192.054C224.414 190.666 223.519 189.968 221.737 189.968C220.497 189.968 219.33 190.214 218.23 190.715L217.573 189.015C218.92 188.44 220.398 188.152 221.991 188.152C225.236 188.152 226.862 189.54 226.862 192.308V200.021V200.012ZM224.414 194.477C222.722 194.567 221.54 194.739 220.866 194.978C219.782 195.355 219.24 196.029 219.24 196.998C219.24 198.386 220.234 199.084 222.221 199.084C223.207 199.084 223.938 198.978 224.406 198.764V194.477H224.414Z" fill="white"/>
<path d="M236.784 200.875V192.538C236.784 190.961 235.897 190.181 234.123 190.181C233.186 190.181 232.406 190.304 231.798 190.551V200.875H229.236V189.023C230.698 188.44 232.316 188.144 234.106 188.144C237.613 188.144 239.371 189.532 239.371 192.308V200.875H236.784Z" fill="white"/>
<path d="M250.09 200.037C249.227 200.596 248.143 200.875 246.845 200.875C245.293 200.875 244.012 200.366 243.01 199.355C241.852 198.189 241.268 196.571 241.268 194.501C241.268 192.431 241.843 190.813 243.01 189.664C244.012 188.645 245.285 188.144 246.845 188.144C248.143 188.144 249.227 188.423 250.09 188.982L249.244 190.772C248.677 190.378 247.987 190.181 247.174 190.181C246.246 190.181 245.49 190.518 244.915 191.199C244.258 191.971 243.93 193.064 243.93 194.468C243.93 195.873 244.266 196.965 244.94 197.737C245.539 198.435 246.279 198.78 247.174 198.78C247.987 198.78 248.677 198.583 249.244 198.189L250.09 200.029V200.037Z" fill="white"/>
<path d="M261.785 194.444L253.367 195.578C253.638 197.787 254.927 198.896 257.252 198.896C258.631 198.896 259.798 198.649 260.759 198.148L261.514 200.013C260.373 200.588 258.894 200.875 257.096 200.875C255.116 200.875 253.588 200.3 252.488 199.15C251.404 198.025 250.862 196.481 250.862 194.493C250.862 192.506 251.371 191.068 252.389 189.91C253.424 188.728 254.82 188.136 256.578 188.136C258.204 188.136 259.494 188.621 260.43 189.59C261.358 190.559 261.818 191.865 261.818 193.516C261.818 193.927 261.81 194.239 261.794 194.444M259.338 193.13C259.321 191.011 258.377 189.951 256.512 189.951C255.51 189.951 254.722 190.296 254.139 190.994C253.531 191.709 253.211 192.695 253.194 193.951L259.33 193.138L259.338 193.13Z" fill="white"/>
<path d="M282.574 200.875H279.912L277.654 192.801C277.498 192.234 277.366 191.618 277.276 190.961H277.227C277.12 191.618 276.988 192.234 276.824 192.801L274.566 200.875H271.913L268.151 188.144H270.713L272.898 196.555C273.054 197.154 273.169 197.819 273.251 198.559H273.301C273.424 197.819 273.572 197.146 273.728 196.555L276.036 188.144H278.459L280.767 196.555C280.923 197.154 281.062 197.819 281.186 198.559H281.235C281.317 197.819 281.432 197.146 281.588 196.555L283.773 188.144H286.335L282.574 200.875Z" fill="white"/>
<path d="M290.155 185.467C289.859 185.746 289.498 185.894 289.07 185.894C288.643 185.894 288.29 185.754 287.986 185.467C287.691 185.187 287.543 184.842 287.543 184.432C287.543 184.021 287.691 183.676 287.986 183.397C288.282 183.109 288.643 182.978 289.07 182.978C289.498 182.978 289.851 183.118 290.155 183.397C290.45 183.676 290.598 184.029 290.598 184.432C290.598 184.834 290.45 185.187 290.155 185.467Z" fill="white"/>
<path d="M290.368 188.144H287.781V200.875H290.368V188.144Z" fill="white"/>
<path d="M307.838 200.875V192.539C307.838 190.937 306.926 190.14 305.111 190.14C304.282 190.14 303.526 190.337 302.852 190.723V200.875H300.29V181.804H302.852V188.793C303.797 188.342 304.741 188.12 305.694 188.12C307.181 188.12 308.347 188.481 309.177 189.212C310.006 189.943 310.425 190.986 310.425 192.333V200.875H307.838Z" fill="white"/>
<path d="M441.643 200.875V183.849H450.579V186.083H444.254V191.093H450.012V193.278H444.254V198.641H450.579V200.875H441.643Z" fill="white"/>
</g>
<defs>
<clipPath id="clip0_5341_10920">
<rect width="161.705" height="161.697" fill="white"/>
</clipPath>
<clipPath id="clip1_5341_10920">
<rect width="350.474" height="104.745" fill="white" transform="translate(185.623 28.7466)"/>
</clipPath>
<clipPath id="clip2_5341_10920">
<rect width="349.135" height="63.4814" fill="white" transform="translate(185.623 158.519)"/>
</clipPath>
</defs>
</svg>
